<?xml version="1.0" encoding="UTF-8" standalone="no"?>
<svg width="199px" height="93px" viewBox="0 0 199 93" version="1.1" xmlns="http://www.w3.org/2000/svg" xmlns:xlink="http://www.w3.org/1999/xlink">
    <!-- Generator: Sketch 39.1 (31720) - http://www.bohemiancoding.com/sketch -->
    <title>birds</title>
    <desc>Created with Sketch.</desc>
    <defs></defs>
    <g id="Assets" stroke="none" stroke-width="1" fill="none" fill-rule="evenodd">
        <g id="birds">
            <g id="Group-7">
                <path d="M105,51.4548174 C105,51.00752 104.970052,50.3440788 104.907162,49.4825059 C104.701435,46.9871632 104.244912,44.5190153 103.544537,42.1156071 C102.999102,40.2711556 102.329736,38.4658309 101.541028,36.7120138 C101.80913,36.0174076 101.980446,35.2890746 102.050141,34.5475745 C102.134935,33.7299657 102.163952,32.9075083 102.13699,32.0859376 L102.116026,31.4855384 C102.116026,31.2573867 102.089073,31.0652589 102.06811,30.8551192 C102.027401,30.4395695 101.963411,30.0266434 101.876444,29.6182967 C101.703035,28.8005868 101.435716,28.0057646 101.079832,27.2497217 C100.363896,25.7538029 99.343804,24.4244884 98.0850515,23.3471265 C96.8546679,22.3114902 95.4944919,21.4415446 94.0391028,20.7594058 C92.6029932,20.0740003 91.1136753,19.5067561 89.585864,19.0632779 C88.1094371,18.6309904 86.6150416,18.2827589 85.1116617,17.9915652 C83.7991489,17.1842636 82.4401391,16.4555067 81.0417548,15.8091139 C80.0115502,15.3317965 78.9454083,14.9085151 77.8403342,14.5032456 C78.648925,14.2961078 79.4694949,14.127996 80.2930596,13.9929062 C81.8678414,13.7399705 83.4598992,13.6104923 85.0547608,13.6056487 C85.4500719,13.6056487 85.8513725,13.6056487 86.2347044,13.6386707 C86.662958,13.6626866 87.0612639,13.6746946 87.4745436,13.6867026 C88.293117,13.7087172 89.1126886,13.7087172 89.9332585,13.6867026 C91.5813715,13.6670473 93.2270895,13.5547967 94.8626675,13.350479 C95.69348,13.244467 96.5174379,13.0901038 97.3303667,12.8881716 C98.1738168,12.68774 98.9939042,12.3989613 99.7771025,12.0265987 C100.194786,11.8217052 100.588511,11.571007 100.951057,11.2791016 C101.351262,10.9549779 101.681409,10.5525348 101.921365,10.0963151 C102.17208,9.60544218 102.284916,9.0554686 102.247797,8.50525707 C102.211461,8.00253393 102.082505,7.51091286 101.867459,7.05529288 C101.478344,6.24544654 100.966123,5.50108755 100.349106,4.84882563 C100.057614,4.53261536 99.7581356,4.23241573 99.4506714,3.94822676 C99.1511934,3.66303711 98.8097884,3.36283749 98.5043208,3.1136718 C97.2008517,1.97715108 95.6836482,1.11362977 94.0420976,0.573982969 C92.3969156,0.0606288737 90.6645693,-0.110980184 88.9509705,0.0696475989 C87.2729141,0.244904962 85.6265669,0.648898577 84.0574989,1.2704461 C82.5092016,1.88251773 81.0171339,2.62884234 79.5982705,3.50092931 C78.1934361,4.35571945 76.8422478,5.29611051 75.5523218,6.3168018 C74.2625696,7.3294752 73.0227304,8.39618454 71.8328042,9.5169298 C70.8225649,10.4715646 69.8422734,11.4552187 68.8919296,12.4678921 C68.3558639,12.4108542 67.8168034,12.3628222 67.2717533,12.3328023 C65.6023729,12.2443234 63.9291548,12.258359 62.2614853,12.3748302 C58.8119481,12.5994065 55.4072516,13.2807751 52.1361319,14.4011777 C48.7567412,15.5784744 45.5674409,17.245235 42.6696302,19.3484675 C39.7155884,21.504338 37.0739991,24.0603561 34.8203101,26.943518 C32.5530781,29.8671086 30.6353272,33.0468803 29.1062686,36.4178182 C27.5779928,39.803328 26.3901807,43.3331135 25.5604483,46.9548251 L25.5334953,47.0749049 C25.3627928,46.7296753 25.1890955,46.3844458 25.0094087,46.0422182 C24.5136981,45.0972437 23.9554202,44.1866026 23.3383211,43.3164056 C22.7097661,42.4306315 21.9767195,41.6242525 21.155126,40.9148086 C20.3218923,40.2019062 19.3922979,39.6106665 18.3939382,39.1586408 C17.3955643,38.7139067 16.3402386,38.4107925 15.2584029,38.2580419 C14.1923069,38.1061162 13.1131503,38.0678773 12.0390137,38.1439661 C10.981195,38.2121777 9.92885117,38.3485499 8.88850444,38.5522375 C8.37639694,38.6483014 7.85530511,38.7653793 7.34020284,38.8914631 C7.0826517,38.954505 6.82510057,39.029555 6.56455465,39.1166128 C6.2942282,39.1978735 6.03322993,39.3075556 5.78591168,39.4438304 C5.71735131,39.4798654 5.65219688,39.5220667 5.59125094,39.5699143 C5.52095308,39.6170008 5.45659679,39.6724402 5.39958497,39.7350241 C5.2491229,39.8802076 5.15381799,40.0733997 5.13005471,40.2813874 C5.11386388,40.492488 5.16640503,40.703159 5.27979375,40.8817866 C5.36389768,41.021439 5.46444509,41.1504498 5.57927181,41.2660422 C5.9939836,41.647299 6.45240102,41.9778323 6.94489179,42.2506969 C7.86664723,42.778452 8.81640189,43.2554756 9.78993341,43.6796471 C10.7482632,44.1149366 11.7095878,44.5172041 12.6649228,44.9404856 C13.6202579,45.363767 14.5696033,45.7780425 15.5099645,46.21033 C16.4503256,46.6426174 17.3906867,47.0719029 18.3190687,47.5131964 C19.2474507,47.9544898 20.1638536,48.4137952 21.0682774,48.9031206 C21.9727011,49.392446 22.8651458,49.8727654 23.7456113,50.4041187 C24.1229536,50.6382745 24.4913116,50.8934441 24.8536801,51.1546178 C24.8207375,51.6019153 24.7967793,52.0552167 24.7937845,52.4965101 L24.7937845,53.0668894 C24.3405744,52.8247284 23.8823729,52.589572 23.4191802,52.3614203 C22.299704,51.8163259 21.1403506,51.3576894 19.9512242,50.989508 C18.7441944,50.6192338 17.4976757,50.3935137 16.2376962,50.3170609 C13.6946836,50.1691495 11.1569863,50.6863947 8.87353053,51.818059 C7.74960233,52.3669744 6.67715179,53.0160139 5.66911523,53.7573486 L5.28877809,54.0245262 L4.92341485,54.3247259 C4.6838324,54.5198556 4.4352656,54.7029774 4.19268837,54.8981071 L3.48891492,55.4985064 L3.13253602,55.798706 L2.79113102,56.0989056 C2.33592436,56.5131811 1.89269683,56.9334606 1.44048495,57.371752 C0.97487698,57.8136304 0.564577836,58.3106031 0.21861444,58.8517362 C0.125184323,59.0168574 0.0565640386,59.1948908 0.0149693554,59.3800875 C-0.0322056639,59.6359443 0.0333142213,59.8997499 0.194656195,60.1035686 C0.348757006,60.2699056 0.545649201,60.3904031 0.763664519,60.4518002 C0.853507939,60.4788182 0.943351358,60.4968301 1.03319478,60.5178441 L1.29074591,60.5538681 C1.93233266,60.6024641 2.57705875,60.5904029 3.21638988,60.5178441 C4.46221863,60.4007663 5.67809957,60.1936285 6.88499618,59.9654768 L10.478733,59.2630097 C11.6766452,59.0268526 12.8745575,58.8007023 14.0724698,58.5845585 C15.270382,58.3654128 16.4682943,58.1522711 17.6662065,57.9601433 C18.642505,57.7980355 19.6217983,57.6599437 20.6010916,57.5368618 C20.3854674,57.5969018 20.1698432,57.6599437 19.9572137,57.7349936 C19.0146799,58.0566289 18.1200587,58.5050173 17.2978485,59.0678799 C16.4773216,59.6255322 15.732398,60.287488 15.0817108,61.0371895 C14.9110083,61.2143072 14.7612693,61.409437 14.6055407,61.6015648 C14.4498121,61.7936925 14.3060626,61.9798163 14.1563236,62.18095 L13.72807,62.7813493 C13.5962996,62.985485 13.4645293,63.1896208 13.3297641,63.3817485 C13.194999,63.5738763 13.0692182,63.787018 12.9464322,63.9971578 C12.8236462,64.2072975 12.6918759,64.4054293 12.5750794,64.618571 C12.3504709,65.0418525 12.0959145,65.4591299 11.8772955,65.8794094 C11.6586765,66.2996889 11.434068,66.7319764 11.2244333,67.1702678 C10.9963477,67.6213894 10.8224344,68.0980322 10.7063363,68.590212 L10.682378,68.8093578 C10.6812276,68.8958851 10.6882467,68.9823276 10.7033415,69.0675294 C10.7458464,69.3015778 10.9036348,69.4981587 11.1226108,69.5898768 C11.2179846,69.6291972 11.3191613,69.6525239 11.4220889,69.6589227 C11.5038529,69.6644623 11.5858968,69.6644623 11.6676609,69.6589227 C11.8095118,69.64117 11.9497164,69.6120577 12.0869302,69.5718648 C12.5677673,69.4190281 13.0346627,69.2251913 13.482498,68.9924795 C14.3599687,68.5601921 15.1835334,68.0678647 15.9951189,67.5665313 L18.4059174,66.0445192 C19.2055238,65.5341799 20.008125,65.0388505 20.8017419,64.5435211 L23.1975664,63.0665389 C23.9971728,62.5772135 24.8087584,62.1149061 25.6173492,61.6495967 C25.9018533,61.4844869 26.1863575,61.3253811 26.4738564,61.1662753 C27.4639514,63.5642834 28.7856178,65.8107696 30.4000139,67.839713 C32.6628863,70.6633764 35.3207388,73.1446231 38.2912609,75.2066118 C39.7462333,76.2342131 41.2613113,77.1735191 42.8283536,78.0194823 C50.2754427,82.1003361 58.6574389,84.1587127 67.1429777,83.9904528 C70.2414567,83.9267044 73.3286173,83.5942435 76.3698969,82.996792 C77.8463238,82.6965924 79.2808237,82.3363529 80.6763915,81.9220774 C82.0454412,81.5203397 83.3920287,81.0453431 84.7103611,80.4991312 C86.0041063,79.9647758 87.2439455,79.3853906 88.4238891,78.7549713 C89.5736047,78.1343924 90.6901838,77.4540128 91.7690591,76.7166159 C93.764383,75.3605282 95.6060967,73.7901925 97.2614868,72.0335017 C99.9506976,69.1838797 102.018103,65.8038557 103.331907,62.1089021 C103.813975,60.751193 104.190446,59.3581059 104.457945,57.9421313 C104.659569,56.8979672 104.805522,55.8437715 104.895183,54.7840313 C104.961068,53.9224584 104.985026,53.2560152 104.99401,52.8087177 L104.99401,52.1332686 L105,51.4548174 Z" id="Shape" fill="#FFFFFF"></path>
                <path d="M105,51.4548174 C105,51.00752 104.970052,50.3440788 104.907162,49.4825059 C104.701435,46.9871632 104.244912,44.5190153 103.544537,42.1156071 C102.999102,40.2711556 102.329736,38.4658309 101.541028,36.7120138 C101.80913,36.0174076 101.980446,35.2890746 102.050141,34.5475745 C102.134935,33.7299657 102.163952,32.9075083 102.13699,32.0859376 L102.116026,31.4855384 C102.116026,31.2573867 102.089073,31.0652589 102.06811,30.8551192 C102.027401,30.4395695 101.963411,30.0266434 101.876444,29.6182967 C101.703035,28.8005868 101.435716,28.0057646 101.079832,27.2497217 C100.363896,25.7538029 99.343804,24.4244884 98.0850515,23.3471265 C96.8546679,22.3114902 95.4944919,21.4415446 94.0391028,20.7594058 C92.6029932,20.0740003 91.1136753,19.5067561 89.585864,19.0632779 C88.1094371,18.6309904 86.6150416,18.2827589 85.1116617,17.9915652 C83.7991489,17.1842636 82.4401391,16.4555067 81.0417548,15.8091139 C80.0115502,15.3317965 78.9454083,14.9085151 77.8403342,14.5032456 C78.648925,14.2961078 79.4694949,14.127996 80.2930596,13.9929062 C81.8678414,13.7399705 83.4598992,13.6104923 85.0547608,13.6056487 C85.4500719,13.6056487 85.8513725,13.6056487 86.2347044,13.6386707 C86.662958,13.6626866 87.0612639,13.6746946 87.4745436,13.6867026 C88.293117,13.7087172 89.1126886,13.7087172 89.9332585,13.6867026 C91.5813715,13.6670473 93.2270895,13.5547967 94.8626675,13.350479 C95.69348,13.244467 96.5174379,13.0901038 97.3303667,12.8881716 C98.1738168,12.68774 98.9939042,12.3989613 99.7771025,12.0265987 C100.194786,11.8217052 100.588511,11.571007 100.951057,11.2791016 C101.351262,10.9549779 101.681409,10.5525348 101.921365,10.0963151 C102.17208,9.60544218 102.284916,9.0554686 102.247797,8.50525707 C102.211461,8.00253393 102.082505,7.51091286 101.867459,7.05529288 C101.478344,6.24544654 100.966123,5.50108755 100.349106,4.84882563 C100.057614,4.53261536 99.7581356,4.23241573 99.4506714,3.94822676 C99.1511934,3.66303711 98.8097884,3.36283749 98.5043208,3.1136718 C97.2008517,1.97715108 95.6836482,1.11362977 94.0420976,0.573982969 C92.3969156,0.0606288737 90.6645693,-0.110980184 88.9509705,0.0696475989 C87.2729141,0.244904962 85.6265669,0.648898577 84.0574989,1.2704461 C82.5092016,1.88251773 81.0171339,2.62884234 79.5982705,3.50092931 C78.1934361,4.35571945 76.8422478,5.29611051 75.5523218,6.3168018 C74.2625696,7.3294752 73.0227304,8.39618454 71.8328042,9.5169298 C70.8225649,10.4715646 69.8422734,11.4552187 68.8919296,12.4678921 C68.3558639,12.4108542 67.8168034,12.3628222 67.2717533,12.3328023 C65.6023729,12.2443234 63.9291548,12.258359 62.2614853,12.3748302 C58.8119481,12.5994065 55.4072516,13.2807751 52.1361319,14.4011777 C48.7567412,15.5784744 45.5674409,17.245235 42.6696302,19.3484675 C39.7155884,21.504338 37.0739991,24.0603561 34.8203101,26.943518 C32.5530781,29.8671086 30.6353272,33.0468803 29.1062686,36.4178182 C27.5779928,39.803328 26.3901807,43.3331135 25.5604483,46.9548251 L25.5334953,47.0749049 C25.3627928,46.7296753 25.1890955,46.3844458 25.0094087,46.0422182 C24.5136981,45.0972437 23.9554202,44.1866026 23.3383211,43.3164056 C22.7097661,42.4306315 21.9767195,41.6242525 21.155126,40.9148086 C20.3218923,40.2019062 19.3922979,39.6106665 18.3939382,39.1586408 C17.3955643,38.7139067 16.3402386,38.4107925 15.2584029,38.2580419 C14.1923069,38.1061162 13.1131503,38.0678773 12.0390137,38.1439661 C10.981195,38.2121777 9.92885117,38.3485499 8.88850444,38.5522375 C8.37639694,38.6483014 7.85530511,38.7653793 7.34020284,38.8914631 C7.0826517,38.954505 6.82510057,39.029555 6.56455465,39.1166128 C6.2942282,39.1978735 6.03322993,39.3075556 5.78591168,39.4438304 C5.71735131,39.4798654 5.65219688,39.5220667 5.59125094,39.5699143 C5.52095308,39.6170008 5.45659679,39.6724402 5.39958497,39.7350241 C5.2491229,39.8802076 5.15381799,40.0733997 5.13005471,40.2813874 C5.11386388,40.492488 5.16640503,40.703159 5.27979375,40.8817866 C5.36389768,41.021439 5.46444509,41.1504498 5.57927181,41.2660422 C5.9939836,41.647299 6.45240102,41.9778323 6.94489179,42.2506969 C7.86664723,42.778452 8.81640189,43.2554756 9.78993341,43.6796471 C10.7482632,44.1149366 11.7095878,44.5172041 12.6649228,44.9404856 C13.6202579,45.363767 14.5696033,45.7780425 15.5099645,46.21033 C16.4503256,46.6426174 17.3906867,47.0719029 18.3190687,47.5131964 C19.2474507,47.9544898 20.1638536,48.4137952 21.0682774,48.9031206 C21.9727011,49.392446 22.8651458,49.8727654 23.7456113,50.4041187 C24.1229536,50.6382745 24.4913116,50.8934441 24.8536801,51.1546178 C24.8207375,51.6019153 24.7967793,52.0552167 24.7937845,52.4965101 L24.7937845,53.0668894 C24.3405744,52.8247284 23.8823729,52.589572 23.4191802,52.3614203 C22.299704,51.8163259 21.1403506,51.3576894 19.9512242,50.989508 C18.7441944,50.6192338 17.4976757,50.3935137 16.2376962,50.3170609 C13.6946836,50.1691495 11.1569863,50.6863947 8.87353053,51.818059 C7.74960233,52.3669744 6.67715179,53.0160139 5.66911523,53.7573486 L5.28877809,54.0245262 L4.92341485,54.3247259 C4.6838324,54.5198556 4.4352656,54.7029774 4.19268837,54.8981071 L3.48891492,55.4985064 L3.13253602,55.798706 L2.79113102,56.0989056 C2.33592436,56.5131811 1.89269683,56.9334606 1.44048495,57.371752 C0.97487698,57.8136304 0.564577836,58.3106031 0.21861444,58.8517362 C0.125184323,59.0168574 0.0565640386,59.1948908 0.0149693554,59.3800875 C-0.0322056639,59.6359443 0.0333142213,59.8997499 0.194656195,60.1035686 C0.348757006,60.2699056 0.545649201,60.3904031 0.763664519,60.4518002 C0.853507939,60.4788182 0.943351358,60.4968301 1.03319478,60.5178441 L1.29074591,60.5538681 C1.93233266,60.6024641 2.57705875,60.5904029 3.21638988,60.5178441 C4.46221863,60.4007663 5.67809957,60.1936285 6.88499618,59.9654768 L10.478733,59.2630097 C11.6766452,59.0268526 12.8745575,58.8007023 14.0724698,58.5845585 C15.270382,58.3654128 16.4682943,58.1522711 17.6662065,57.9601433 C18.642505,57.7980355 19.6217983,57.6599437 20.6010916,57.5368618 C20.3854674,57.5969018 20.1698432,57.6599437 19.9572137,57.7349936 C19.0146799,58.0566289 18.1200587,58.5050173 17.2978485,59.0678799 C16.4773216,59.6255322 15.732398,60.287488 15.0817108,61.0371895 C14.9110083,61.2143072 14.7612693,61.409437 14.6055407,61.6015648 C14.4498121,61.7936925 14.3060626,61.9798163 14.1563236,62.18095 L13.72807,62.7813493 C13.5962996,62.985485 13.4645293,63.1896208 13.3297641,63.3817485 C13.194999,63.5738763 13.0692182,63.787018 12.9464322,63.9971578 C12.8236462,64.2072975 12.6918759,64.4054293 12.5750794,64.618571 C12.3504709,65.0418525 12.0959145,65.4591299 11.8772955,65.8794094 C11.6586765,66.2996889 11.434068,66.7319764 11.2244333,67.1702678 C10.9963477,67.6213894 10.8224344,68.0980322 10.7063363,68.590212 L10.682378,68.8093578 C10.6812276,68.8958851 10.6882467,68.9823276 10.7033415,69.0675294 C10.7458464,69.3015778 10.9036348,69.4981587 11.1226108,69.5898768 C11.2179846,69.6291972 11.3191613,69.6525239 11.4220889,69.6589227 C11.5038529,69.6644623 11.5858968,69.6644623 11.6676609,69.6589227 C11.8095118,69.64117 11.9497164,69.6120577 12.0869302,69.5718648 C12.5677673,69.4190281 13.0346627,69.2251913 13.482498,68.9924795 C14.3599687,68.5601921 15.1835334,68.0678647 15.9951189,67.5665313 L18.4059174,66.0445192 C19.2055238,65.5341799 20.008125,65.0388505 20.8017419,64.5435211 L23.1975664,63.0665389 C23.9971728,62.5772135 24.8087584,62.1149061 25.6173492,61.6495967 C25.9018533,61.4844869 26.1863575,61.3253811 26.4738564,61.1662753 C27.4639514,63.5642834 28.7856178,65.8107696 30.4000139,67.839713 C32.6628863,70.6633764 35.3207388,73.1446231 38.2912609,75.2066118 C39.7462333,76.2342131 41.2613113,77.1735191 42.8283536,78.0194823 C50.2754427,82.1003361 58.6574389,84.1587127 67.1429777,83.9904528 C70.2414567,83.9267044 73.3286173,83.5942435 76.3698969,82.996792 C77.8463238,82.6965924 79.2808237,82.3363529 80.6763915,81.9220774 C82.0454412,81.5203397 83.3920287,81.0453431 84.7103611,80.4991312 C86.0041063,79.9647758 87.2439455,79.3853906 88.4238891,78.7549713 C89.5736047,78.1343924 90.6901838,77.4540128 91.7690591,76.7166159 C93.764383,75.3605282 95.6060967,73.7901925 97.2614868,72.0335017 C99.9506976,69.1838797 102.018103,65.8038557 103.331907,62.1089021 C103.813975,60.751193 104.190446,59.3581059 104.457945,57.9421313 C104.659569,56.8979672 104.805522,55.8437715 104.895183,54.7840313 C104.961068,53.9224584 104.985026,53.2560152 104.99401,52.8087177 L104.99401,52.1332686 L105,51.4548174 Z M104.835287,52.8057157 C104.835287,53.2530132 104.796355,53.9104504 104.727475,54.7690213 C104.194462,61.1461931 101.366382,67.1115269 96.7703428,71.5531823 C95.0906082,73.2013365 93.2357502,74.6600073 91.2389829,75.9030749 C89.0261977,77.2744611 86.687601,78.4304928 84.2551544,79.3553706 C79.1790012,81.3066682 73.3271998,82.4714427 67.0860769,82.7146044 C65.5257962,82.7716423 63.9415572,82.7746443 62.3483339,82.6935904 C60.7304713,82.6066745 59.1181443,82.436336 57.5177527,82.1832511 C54.2040636,81.6580757 50.9534182,80.7908922 47.8176582,79.5955303 C46.2051493,78.9824724 44.6275105,78.2809465 43.0918943,77.4941329 C41.5423278,76.6837204 40.0422822,75.7815245 38.5997233,74.7923363 C35.6425069,72.7917971 33.0076336,70.3500084 30.7863406,67.5515213 C28.519839,64.7236163 26.9013802,61.4307311 26.0456028,57.9061074 C25.6403054,56.141087 25.4661406,54.3306564 25.5275058,52.5205261 C25.5609636,51.615036 25.6519899,50.712606 25.8000308,49.8187295 C25.9377907,48.9181306 26.165394,48.0505537 26.3989869,47.1589608 C27.3192171,43.629615 28.576857,40.197456 30.1544419,36.9101456 C31.7029928,33.6566916 33.6257182,30.59589 35.8834573,27.790081 C38.0864375,25.0315474 40.6605281,22.592696 43.5321271,20.543262 C46.3312963,18.5561568 49.4055911,16.9905267 52.6572237,15.8961718 C55.8038575,14.8403677 59.0731544,14.1956281 62.3842713,13.9778962 C63.9892313,13.8711765 65.5987587,13.8511342 67.2058681,13.9178563 L67.5652418,13.9418723 C66.7656354,14.8424712 65.992982,15.776092 65.2592607,16.7367308 L65.3970206,16.8508066 C66.4811312,15.6500081 67.6251374,14.4972416 68.7871123,13.371493 C69.9490872,12.2457444 71.1469995,11.1590218 72.3808491,10.120331 C73.6146987,9.08164035 74.8725066,8.07296961 76.1812258,7.14235077 C77.4808771,6.20540946 78.8294447,5.33860329 80.2211849,4.54562401 C81.5998171,3.76124261 83.0413096,3.09348571 84.5306742,2.5492965 C85.9916927,2.00358496 87.5201423,1.66019342 89.0737565,1.52861778 C90.5904045,1.40577034 92.1163855,1.58117108 93.5659275,2.04496113 C95.0104209,2.53677527 96.3415239,3.31469747 97.4801058,4.33248228 C97.8005473,4.59965994 98.0790619,4.84582363 98.3515869,5.1160033 C98.624112,5.38618296 98.9026266,5.65936462 99.1571829,5.94155227 C99.6595283,6.4682146 100.08046,7.067236 100.406006,7.71873405 C100.544577,8.00061148 100.628904,8.30614428 100.654573,8.61933292 C100.676257,8.88477427 100.623348,9.15099803 100.501839,9.38784396 C100.157652,9.93697461 99.6597793,10.372358 99.0703343,10.6396764 C97.7676047,11.3091216 96.2013344,11.6543511 94.6500381,11.9275328 C93.0755351,12.1864112 91.4878172,12.3567905 89.8943264,12.4378722 C89.0957182,12.4819014 88.29711,12.5099201 87.4985019,12.5219281 L86.3005896,12.5219281 C85.872336,12.5219281 85.462051,12.5219281 85.0487713,12.536938 C83.4015102,12.6087313 81.7623666,12.8094757 80.1463153,13.1373373 C78.5325877,13.4627763 76.9510583,13.9319485 75.4205515,14.5392695 C73.9153704,15.1346332 72.481828,15.8979431 71.1469995,16.8147827 L71.0601508,16.8147827 L71.0391874,16.8147827 C71.0391874,17.0699524 71.0391874,17.2230542 71.0541613,17.3161161 L70.9792918,17.3161161 L70.9792918,17.39717 L71.0451769,17.3161161 L71.0451769,17.358144 L71.2009055,17.373154 L71.2937437,17.373154 L71.440488,17.373154 L72.0394441,17.373154 L73.2104033,17.373154 C73.9910428,17.373154 74.7716823,17.3951686 75.5523218,17.4391979 C77.1126025,17.5112458 78.6698885,17.6493376 80.2181901,17.8324594 C81.7664917,18.0155812 83.3088037,18.2647469 84.8361418,18.5799565 C86.3611374,18.8894689 87.8662253,19.2904561 89.3432867,19.780755 C90.8141734,20.2639943 92.2434046,20.8663803 93.6168387,21.5819527 C94.9768884,22.2764541 96.237108,23.151948 97.3633093,24.1846835 C98.4655476,25.192075 99.3458266,26.4190505 99.947805,27.787079 C100.235354,28.461207 100.444374,29.1663325 100.570719,29.8884764 C100.634218,30.2521894 100.679198,30.6189078 100.705485,30.987207 C100.705485,31.1673268 100.726448,31.3654585 100.729443,31.5305683 L100.729443,32.1309676 C100.731971,32.880857 100.683945,33.6300607 100.585693,34.3734588 C100.50624,35.0710334 100.315117,35.7512062 100.01968,36.3877982 C99.8892201,36.6510994 99.7104026,36.8873813 99.4925984,37.0842614 C99.297169,37.2532186 99.0605149,37.3671691 98.8067936,37.414481 C98.1778535,37.4831379 97.5423783,37.3717659 96.9739878,37.0932674 C95.674253,36.5439021 94.4374086,35.6192872 93.2754337,34.6466404 C92.1089955,33.6468238 90.999197,32.5824583 89.9512272,31.4585204 C89.4221493,30.8961464 88.9050505,30.3227652 88.3999308,29.7383766 L88.0255832,29.3000851 L87.8728494,29.1169633 L87.6811835,28.8647956 C87.4236323,28.5375781 87.1660812,28.2283724 86.9025405,27.9191668 C85.8436717,26.6962224 84.6911726,25.5580096 83.455548,24.5149031 C82.2079322,23.4605479 80.8551136,22.5380527 79.4185836,21.7620725 C77.962812,20.9704044 76.4104626,20.371986 74.8006319,19.9818887 L70.1557271,18.8801561 L74.0489419,21.7080366 C74.4682112,22.0082362 74.9174283,22.3684758 75.3396924,22.7197093 C75.7619565,23.0709429 76.1932049,23.4311824 76.6034898,23.806432 C77.4330441,24.547925 78.2266609,25.3254421 78.9753561,26.141985 C80.4822428,27.7343857 81.7448404,29.542298 82.7218267,31.5065523 C83.1902196,32.4617991 83.5219119,33.4784751 83.7071095,34.5265606 C83.8871914,35.5507217 83.8729671,36.5997403 83.6651826,37.6186167 C83.4416986,38.6416781 83.0358935,39.6159231 82.4672704,40.4945291 C82.3265157,40.7166768 82.1677923,40.9268166 82.0060741,41.1459623 C81.9282098,41.2510322 81.8473508,41.371112 81.775476,41.4611719 L81.502951,41.7913915 C81.157951,42.2031572 80.7889482,42.5940998 80.3978769,42.96217 C80.0293248,43.311886 79.6188976,43.6143978 79.1760064,43.8627689 C78.8168338,44.0816694 78.3963883,44.1775512 77.9780941,44.1359506 C77.5715563,44.0469628 77.2109149,43.8134207 76.9628635,43.4785134 C76.6485488,43.0763042 76.392463,42.6316222 76.2021892,42.157635 C75.7975357,41.1341355 75.5023941,40.0704746 75.3217237,38.984525 C75.1248103,37.8716877 74.9848706,36.7494732 74.9024544,35.6222892 L74.8485484,34.7787283 L74.8275849,34.3554468 L74.8275849,33.9561813 C74.83272,33.3688927 74.8077305,32.7817278 74.7527154,32.1970115 C74.6444283,31.0400903 74.4441395,29.8936859 74.1537593,28.7687318 C73.8671643,27.644634 73.4657388,26.5531438 72.955847,25.5115658 C72.4413706,24.4759436 71.7983879,23.5096501 71.0421822,22.6356534 L70.9044222,22.7497293 C71.5800657,23.6555597 72.1451076,24.6392067 72.587489,25.6796776 C73.0256791,26.717558 73.3558554,27.7979949 73.5727718,28.9038216 C73.7950866,30.0060849 73.9292796,31.124377 73.9740724,32.2480454 C73.9890463,32.8064167 74.0040202,33.373794 73.9740724,33.9141533 L73.9740724,34.8147522 L73.9740724,35.6823291 C74.0149724,36.8424531 74.1149285,37.9997277 74.2735505,39.1496348 C74.4207207,40.3260771 74.6927916,41.4834032 75.085136,42.6019305 C75.2976321,43.1985127 75.5941199,43.7615794 75.9656015,44.2740424 C76.1761355,44.5541376 76.4263437,44.8019146 76.7083072,45.0095315 C77.0149888,45.2341069 77.3663775,45.3897458 77.7385117,45.4658349 C78.1072355,45.539513 78.486841,45.539513 78.8555649,45.4658349 C79.1933166,45.3941379 79.5204445,45.279115 79.8288686,45.1236073 C80.3910841,44.8326071 80.9143305,44.4715042 81.3861545,44.0488927 C81.8375676,43.6486556 82.2645935,43.2216033 82.6649259,42.7700423 L82.9464353,42.4488287 C83.0542474,42.3197428 83.1381012,42.205667 83.2459133,42.0825851 C83.4285949,41.8394234 83.6262505,41.6052677 83.796953,41.3531 C85.226089,39.2827121 85.8061866,36.7406855 85.4171293,34.2533789 C85.2299355,33.0437147 84.8740693,31.8664255 84.3599717,30.7560533 C83.8559819,29.6680262 83.2545609,28.6280754 82.5631033,27.6489872 C81.8878387,26.6801924 81.152677,25.7547649 80.3619396,24.8781446 C79.577307,24.0045637 77.2114303,22.7467273 78.5291338,23.4521964 C79.8532209,24.1718422 81.1066028,25.0151391 82.2726096,25.9708713 C83.4507731,26.9330385 84.5522055,27.9859353 85.5668683,29.1199653 C85.8154351,29.405155 86.0640019,29.6933466 86.2975948,29.9815382 L86.4653025,30.197682 L86.513219,30.2607239 L86.540172,30.2907439 L86.5910833,30.3507838 L86.6899111,30.4648596 L87.0852221,30.9181611 C87.6162966,31.5185603 88.1583519,32.1039496 88.711388,32.6743289 C89.8204648,33.8309049 90.9932586,34.9243413 92.2242657,35.9495068 C92.8507505,36.4691104 93.5034763,36.9560768 94.1798575,37.408477 C94.8758523,37.8833432 95.6184193,38.2856979 96.3959952,38.6092755 C96.8111818,38.7778621 97.2427646,38.9026184 97.6837509,38.981523 C98.1675052,39.0743824 98.6644443,39.0743824 99.1481986,38.981523 C99.6661121,38.8712276 100.14621,38.6269779 100.540772,38.2730519 C100.85948,37.9799462 101.124971,37.6335701 101.325404,37.2493712 C102.10698,38.8561576 102.768644,40.518817 103.304954,42.223679 C104.056691,44.5961827 104.544803,47.0446356 104.760418,49.5245338 C104.829298,50.3831048 104.859245,51.0435439 104.86823,51.4878394 L104.86823,52.1632886 L104.835287,52.8057157 Z M73.5817561,54.0485422 C73.5817561,54.0485422 68.0324276,43.802729 62.2944279,43.802729 C59.3954802,43.802729 51.0729847,51.4368055 48.5184368,51.5328693 C48.5184368,51.5328693 49.8930412,52.9047816 51.2616559,52.1602866 C50.1895245,53.0939074 49.2611424,54.186634 47.9194807,54.237668 C47.9194807,54.237668 50.099681,54.7269933 51.0490265,54.6219235 C51.492254,54.1055801 57.6615022,48.8851086 62.8574466,48.8851086 C67.385555,48.8851086 69.7664056,52.8807657 72.3778543,54.6669534 C73.0756382,55.1352648 73.5817561,54.0485422 73.5817561,54.0485422 Z M101.852486,51.7129891 C99.4177289,51.6229292 91.4516123,44.4091322 88.6754506,44.4091322 C83.1740386,44.4091322 77.8642925,54.0875681 77.8642925,54.0875681 C77.8642925,54.0875681 78.3434574,55.1232569 79.017283,54.6699554 C81.5179249,52.9828335 83.7939582,49.2093242 88.1274058,49.2093242 C93.0987417,49.2093242 99.0014543,54.1416041 99.4267132,54.6309295 C100.325147,54.7299953 102.421494,54.2676879 102.421494,54.2676879 C101.136733,54.219656 100.250278,53.1869693 99.2230681,52.3073844 C100.534782,53.0068495 101.852486,51.7129891 101.852486,51.7129891 Z M82.8835449,67.4434495 C82.4942234,67.3353776 82.1108915,67.2092938 81.7275595,67.0712019 C80.9626267,66.7873479 80.2138046,66.4616423 79.4844688,66.0955532 L77.2683311,64.9818125 C77.07966,64.8887507 76.887994,64.7956888 76.7023176,64.7146349 L76.5615629,64.651593 L76.3938552,64.588551 C76.2860431,64.5495251 76.178231,64.5014931 76.0674241,64.4714732 C75.620837,64.3351065 75.1566716,64.2653139 74.689825,64.2643354 C74.2298744,64.2638642 73.7718187,64.3234036 73.3271998,64.4414532 C72.8976534,64.5553657 72.4780117,64.7039495 72.0723867,64.8857487 C71.6818639,65.0657974 71.3010062,65.2662044 70.9313753,65.4861479 L70.6798137,65.6422517 L70.5450486,65.7233056 L70.4312469,65.7863475 C70.2725314,65.8754071 70.1085078,65.9546088 69.9401029,66.0235052 C69.5897135,66.1706031 69.2123712,66.2966869 68.8350288,66.4197687 C68.4576864,66.5428506 68.068365,66.6599284 67.6760487,66.7649983 L65.1903808,67.4524555 L65.2592607,67.5455173 C65.5730928,67.9349332 65.9208596,68.2955933 66.2984496,68.623234 C66.4981016,68.8013524 66.6977537,68.9764689 66.8974057,69.1485833 C66.9317553,69.4129124 66.9950267,69.6726482 67.0860769,69.9230984 C67.2234267,70.3268 67.3895666,70.7200756 67.5832105,71.0998809 C67.7958399,71.5411744 68.0713597,72.0154898 68.3828169,72.5258291 C69.0973885,73.6777141 69.9392482,74.7451622 70.8924431,75.7079452 C71.4165297,76.2362965 71.9795485,76.7616458 72.5785046,77.2689832 C73.192506,77.7930455 73.8647892,78.2443289 74.5820129,78.6138775 C74.7659207,78.7136401 74.9548432,78.80382 75.1480264,78.8840572 C75.3486947,78.9767454 75.5584681,79.0481798 75.7739356,79.0971989 C75.8859833,79.1261891 76.0001398,79.1462648 76.1153406,79.1572388 L76.205184,79.1572388 L76.2441161,79.1332229 L76.2441161,79.1062049 L76.2890379,79.1062049 L76.4657299,79.064177 C76.6698254,78.9922466 76.8624832,78.8911357 77.037733,78.7639773 C77.355342,78.5222858 77.6555638,78.2584573 77.9361672,77.9744523 C78.211687,77.7012707 78.4872069,77.434093 78.744758,77.1609113 C79.2567126,76.6512932 79.7208591,76.0955881 80.1313414,75.5008074 C80.4779163,74.9649918 80.7861534,74.4052168 81.0537339,73.8256935 C81.4657534,72.9642807 81.8014617,72.0682409 82.0569854,71.1479128 L82.1078967,70.9557851 L82.4463069,70.5264996 C83.045263,69.7519846 83.6442191,68.9624596 84.2431753,68.1819405 L84.5426533,67.7676651 L84.0515093,67.7106271 C83.6566125,67.6481248 83.2663966,67.5588609 82.8835449,67.4434495 L82.8835449,67.4434495 Z M78.99033,74.7893343 C78.6908519,75.3687196 78.4153321,76.0141488 78.0918958,76.656576 C77.7934772,77.3198083 77.3430141,77.9030155 76.7771871,78.3587078 C76.6434078,78.4565454 76.493325,78.5297345 76.3339596,78.5748516 L76.2291422,78.5748516 L76.1991944,78.5748516 L76.1273197,78.5748516 C76.0480972,78.5687988 75.9707999,78.5473889 75.8997164,78.5118097 C75.581597,78.3584071 75.2895302,78.1557978 75.0342248,77.9114104 C74.4831851,77.410077 73.9950359,76.8246878 73.4799336,76.2873304 C72.9648313,75.7499731 72.4886612,75.1795938 72.027465,74.6332305 C71.1290308,73.5314979 70.2036436,72.5528471 69.4369797,71.6972782 C69.0446635,71.2769987 68.7002637,70.8807352 68.3858117,70.5325036 C68.1881562,70.3073539 68.0114641,70.1032181 67.849746,69.9170944 C68.4726603,70.4124238 69.1045591,70.8957452 69.7514317,71.3580526 C70.1497375,71.6582522 70.5510381,71.9284319 70.949344,72.1986115 C71.3476498,72.4687912 71.7669191,72.7449749 72.1831936,73.0061485 C73.0187374,73.5284959 73.8662603,74.0328312 74.7676893,74.4801287 C75.2318711,74.7123082 75.7111216,74.912895 76.2021892,75.0805279 L76.4118239,75.1435699 L76.519636,75.1735898 L76.6753646,75.2036098 C76.7672413,75.2216284 76.8603441,75.2326671 76.9538792,75.2366317 L77.0437226,75.2366317 L77.1245817,75.2366317 L77.1695034,75.2366317 L77.2623416,75.2366317 C77.3218999,75.2268369 77.380884,75.2138091 77.4390336,75.1976058 L77.5767935,75.1495738 C77.660334,75.1211316 77.741455,75.0859948 77.8193708,75.044504 C77.9555031,74.9752053 78.0874966,74.8980236 78.2146818,74.8133503 C78.645345,74.5112982 79.0518695,74.1760609 79.4305628,73.8106835 L79.6222287,73.6245598 C79.4455367,74.0028113 79.2179333,74.3870668 79.0023091,74.7983403 L78.99033,74.7893343 Z M81.7185752,69.8450465 L79.6012653,71.823362 C79.2478811,72.1445756 78.894497,72.4657892 78.5321286,72.7629868 C78.189685,73.0531522 77.8274326,73.318976 77.448018,73.5585158 C77.3696176,73.6051355 77.2886268,73.6472319 77.2054407,73.6845997 C77.1761741,73.7005709 77.144969,73.7126794 77.1126025,73.7206236 L77.0976286,73.7206236 L77.0497121,73.7206236 C77.0205336,73.7251266 76.9908747,73.7163176 76.9688531,73.6966077 L76.738255,73.6185558 C76.3459387,73.4684559 75.9206798,73.2643202 75.5014105,73.0571825 C74.6598772,72.633901 73.8093595,72.1805996 72.9618366,71.7212941 L71.6890548,71.030835 L70.416273,70.3313699 L67.8707094,68.9204316 L66.6009224,68.2059565 C66.2535279,68.0018208 65.897149,67.797685 65.5647283,67.5755373 C65.9001438,67.5755373 66.2325644,67.5935493 66.5649851,67.5755373 C66.9782648,67.5575253 67.3945393,67.5455173 67.807819,67.5034894 C68.6529786,67.4395372 69.490235,67.2958053 70.3084609,67.0742039 C70.5276496,67.0093869 70.7426771,66.931189 70.9523387,66.8400482 L71.1170517,66.7680003 L71.2518168,66.7019564 L71.5243418,66.5698686 C71.8807207,66.3987548 72.2370996,66.233645 72.5934785,66.0955532 C73.2735612,65.8139554 73.9946605,65.6446515 74.7287571,65.5942198 C75.0822736,65.5750231 75.4368237,65.5951593 75.7859147,65.6542597 C75.8757581,65.6542597 75.959612,65.6902837 76.0494554,65.7082956 L76.1752362,65.7353136 L76.3219804,65.7773416 L76.9059627,65.9454533 C77.6816109,66.1736051 78.4692382,66.4197687 79.2478811,66.6809424 C79.6372026,66.8100283 80.0265241,66.9481201 80.4128508,67.0832099 L81.5748257,67.5034894 C81.9621507,67.6455839 82.3524704,67.782675 82.745785,67.9147629 C82.9763831,67.9928148 83.2129707,68.0648627 83.4525532,68.1279046 C82.8895344,68.7102919 82.3055522,69.2806712 81.7185752,69.8450465 Z" id="bird_val" fill="#000000"></path>
            </g>
            <g id="Group-8" transform="translate(98.000000, 4.000000)">
                <path d="M99.3164508,57.0090677 C92.9695116,46.6685643 82.0589212,49.0181296 79.1339672,49.8818516 C79.0978195,49.3835505 79.0466102,48.8188092 78.9682901,48.1906478 C89.177012,43.8297579 105.22058,44.772 94.8823291,40.4835904 C87.0503205,37.237083 81.2516218,41.2808722 78.260397,44.322019 C78.1298636,43.7824445 77.9812562,43.2217299 77.814575,42.6398752 C77.3209106,40.9412377 76.6996009,39.2825346 75.9559791,37.678004 C75.0835201,35.7785 74.0463108,33.9595045 72.8563111,32.2419917 C69.9732246,28.0979879 66.2846402,24.5807714 62.0119916,21.9014884 C60.4235831,20.9024543 58.7643906,20.0212798 57.0477031,19.2650224 C58.1907903,19.3938651 59.3405144,19.4543723 60.4907745,19.4462228 C61.8889403,19.4229745 63.2813833,19.2611194 64.6477637,18.9630217 C65.373756,18.8075113 66.0891238,18.6057686 66.7895168,18.3590204 C67.5203583,18.1156984 68.2100321,17.7623431 68.834876,17.311078 C69.5003586,16.8260766 69.962069,16.1102118 70.1301697,15.3027734 C70.266354,14.493854 70.2001104,13.6636929 69.9373818,12.886768 L69.8952094,12.7418077 L69.8349632,12.5817473 L69.7325446,12.3159867 C69.6602492,12.1378063 69.6030153,11.9626459 69.5186705,11.7814455 L69.2174395,11.2257642 C69.1662302,11.135164 69.1150209,11.0385238 69.0607993,10.9479236 L68.8800606,10.700283 C68.4004125,10.0287184 67.8045976,9.44876958 67.120871,8.98793918 C65.782825,8.15386722 64.2764053,7.62878076 62.7108477,7.4507557 C61.2965309,7.2737977 59.8657568,7.2737977 58.45144,7.4507557 C57.205037,7.600357 55.9701746,7.83444012 54.7553344,8.15139729 C53.6347547,8.45339797 52.6256305,8.75539865 51.7430234,9.09363942 C51.5110755,9.17819961 51.2911768,9.25973979 51.080315,9.34429998 C51.7819891,8.71590413 52.4215537,8.02110381 52.9901202,7.26955529 C53.3089865,6.84870665 53.5807237,6.39397923 53.8004318,5.91357223 C54.0481382,5.3900014 54.1826171,4.81983596 54.1950446,4.24048845 C54.2000801,3.62133302 54.0138303,3.01579324 53.6618655,2.50700453 C53.3313218,2.04512031 52.9112668,1.65480643 52.426818,1.35940194 C52.315573,1.28493086 52.1998847,1.21735764 52.0804022,1.15706148 C51.9629221,1.09666134 51.8514666,1.02720119 51.7279619,0.972841063 C51.4839647,0.861100811 51.2369552,0.746340551 51.0140442,0.670840381 C50.5356363,0.48670603 50.0442918,0.33832044 49.5440364,0.226899378 C48.5472039,0.0105307609 47.5232103,-0.0515954194 46.5076269,0.0426789612 C46.0090964,0.0893630274 45.5147185,0.173147547 45.0285822,0.293339528 C44.5456346,0.40433081 44.0706365,0.547597855 43.6067714,0.722180497 C41.8195348,1.41783198 40.1383766,2.36119782 38.6123598,3.52474683 C37.1658773,4.60355048 35.8389052,5.83469249 34.6541832,7.19707513 C33.6045526,8.42164939 32.6403375,9.71728108 31.7683893,11.0747639 C30.9671145,12.3341067 30.28332,13.5149294 29.7290547,14.5870318 C29.1747895,15.6591343 28.7229429,16.6134564 28.3795394,17.4077182 C28.298207,17.5919386 28.2259115,17.767099 28.1566284,17.9331994 C27.2920951,18.21708 26.4335865,18.5372008 25.5811025,18.8724215 C18.926969,21.5623826 13.1529677,26.0595166 8.90796119,31.8584509 C8.27738409,32.7483462 7.68195062,33.6654216 7.12166077,34.6096771 C5.60548562,34.6380056 4.09421682,34.7915388 2.60319429,35.0687181 C2.60319429,35.0687181 -1.10797284,42.0147338 0.331911811,43.2227365 C0.714475306,43.5458773 1.8922889,43.3495768 3.55207226,42.9358359 C3.187406,44.2787943 2.89678007,45.640866 2.68151438,47.0158651 C2.14496832,50.6683936 2.19276115,54.3833302 2.823093,58.02077 C3.15265462,59.824652 3.61274558,61.6020921 4.19971912,63.339002 C5.38838676,66.7781468 7.08953541,70.0170595 9.24534002,72.9456437 C14.5241285,80.0513605 22.0218944,85.1827675 30.545391,87.5232167 C31.3557027,87.7708572 32.1840882,87.9309176 33.0004245,88.127218 C33.4100988,88.2147982 33.8227854,88.2812384 34.2324597,88.3597586 C34.6421339,88.4382787 35.0518082,88.5167989 35.4644948,88.562099 L36.69653,88.7281994 C37.103192,88.7885995 37.5219033,88.8067196 37.9345899,88.8459797 C38.3472765,88.8852397 38.7629754,88.9275198 39.1636127,88.9395999 L40.3685371,88.9849 C40.5763866,88.9849 40.7541129,89 40.9709993,89 L41.5734615,89 L42.7783859,88.98188 C43.1790233,88.98188 43.5796606,88.9335598 43.9833103,88.9124198 C44.38696,88.8912798 44.7785604,88.8761797 45.1731732,88.8218196 C48.2487548,88.5219952 51.2798769,87.8694344 54.2070938,86.8769352 C56.9298595,85.9334442 59.5379059,84.6853536 61.9818685,83.1562868 C66.2553608,80.488173 69.9445345,76.9786137 72.826188,72.8399435 C74.0153062,71.1224186 75.0515137,69.3034121 75.9228437,67.4039312 C77.5489615,63.8793404 78.5898661,60.1121053 79.0044378,56.251046 C84.4567207,63.7527429 87.0864682,74.8965681 88.3847743,66.0841882 C89.4782431,58.6730915 84.0952434,54.8135227 80.7124182,53.149499 C92.4333202,56.3325862 105.762796,67.5126514 99.3164508,57.0090677 L99.3164508,57.0090677 Z" id="Shape" fill="#FFFFFF"></path>
                <path d="M99.3164508,57.0090677 C92.9695116,46.6685643 82.0589212,49.0181296 79.1339672,49.8818516 C79.0978195,49.3835505 79.0466102,48.8188092 78.9682901,48.1906478 C89.177012,43.8297579 105.22058,44.772 94.8823291,40.4835904 C87.0503205,37.237083 81.2516218,41.2808722 78.260397,44.322019 C78.1298636,43.7824445 77.9812562,43.2217299 77.814575,42.6398752 C77.3209106,40.9412377 76.6996009,39.2825346 75.9559791,37.678004 C75.0835201,35.7785 74.0463108,33.9595045 72.8563111,32.2419917 C69.9732246,28.0979879 66.2846402,24.5807714 62.0119916,21.9014884 C60.4235831,20.9024543 58.7643906,20.0212798 57.0477031,19.2650224 C58.1907903,19.3938651 59.3405144,19.4543723 60.4907745,19.4462228 C61.8889403,19.4229745 63.2813833,19.2611194 64.6477637,18.9630217 C65.373756,18.8075113 66.0891238,18.6057686 66.7895168,18.3590204 C67.5203583,18.1156984 68.2100321,17.7623431 68.834876,17.311078 C69.5003586,16.8260766 69.962069,16.1102118 70.1301697,15.3027734 C70.266354,14.493854 70.2001104,13.6636929 69.9373818,12.886768 L69.8952094,12.7418077 L69.8349632,12.5817473 L69.7325446,12.3159867 C69.6602492,12.1378063 69.6030153,11.9626459 69.5186705,11.7814455 L69.2174395,11.2257642 C69.1662302,11.135164 69.1150209,11.0385238 69.0607993,10.9479236 L68.8800606,10.700283 C68.4004125,10.0287184 67.8045976,9.44876958 67.120871,8.98793918 C65.782825,8.15386722 64.2764053,7.62878076 62.7108477,7.4507557 C61.2965309,7.2737977 59.8657568,7.2737977 58.45144,7.4507557 C57.205037,7.600357 55.9701746,7.83444012 54.7553344,8.15139729 C53.6347547,8.45339797 52.6256305,8.75539865 51.7430234,9.09363942 C51.5110755,9.17819961 51.2911768,9.25973979 51.080315,9.34429998 C51.7819891,8.71590413 52.4215537,8.02110381 52.9901202,7.26955529 C53.3089865,6.84870665 53.5807237,6.39397923 53.8004318,5.91357223 C54.0481382,5.3900014 54.1826171,4.81983596 54.1950446,4.24048845 C54.2000801,3.62133302 54.0138303,3.01579324 53.6618655,2.50700453 C53.3313218,2.04512031 52.9112668,1.65480643 52.426818,1.35940194 C52.315573,1.28493086 52.1998847,1.21735764 52.0804022,1.15706148 C51.9629221,1.09666134 51.8514666,1.02720119 51.7279619,0.972841063 C51.4839647,0.861100811 51.2369552,0.746340551 51.0140442,0.670840381 C50.5356363,0.48670603 50.0442918,0.33832044 49.5440364,0.226899378 C48.5472039,0.0105307609 47.5232103,-0.0515954194 46.5076269,0.0426789612 C46.0090964,0.0893630274 45.5147185,0.173147547 45.0285822,0.293339528 C44.5456346,0.40433081 44.0706365,0.547597855 43.6067714,0.722180497 C41.8195348,1.41783198 40.1383766,2.36119782 38.6123598,3.52474683 C37.1658773,4.60355048 35.8389052,5.83469249 34.6541832,7.19707513 C33.6045526,8.42164939 32.6403375,9.71728108 31.7683893,11.0747639 C30.9671145,12.3341067 30.28332,13.5149294 29.7290547,14.5870318 C29.1747895,15.6591343 28.7229429,16.6134564 28.3795394,17.4077182 C28.298207,17.5919386 28.2259115,17.767099 28.1566284,17.9331994 C27.2920951,18.21708 26.4335865,18.5372008 25.5811025,18.8724215 C18.926969,21.5623826 13.1529677,26.0595166 8.90796119,31.8584509 C8.27738409,32.7483462 7.68195062,33.6654216 7.12166077,34.6096771 C5.60548562,34.6380056 4.09421682,34.7915388 2.60319429,35.0687181 C2.60319429,35.0687181 -1.10797284,42.0147338 0.331911811,43.2227365 C0.714475306,43.5458773 1.8922889,43.3495768 3.55207226,42.9358359 C3.187406,44.2787943 2.89678007,45.640866 2.68151438,47.0158651 C2.14496832,50.6683936 2.19276115,54.3833302 2.823093,58.02077 C3.15265462,59.824652 3.61274558,61.6020921 4.19971912,63.339002 C5.38838676,66.7781468 7.08953541,70.0170595 9.24534002,72.9456437 C14.5241285,80.0513605 22.0218944,85.1827675 30.545391,87.5232167 C31.3557027,87.7708572 32.1840882,87.9309176 33.0004245,88.127218 C33.4100988,88.2147982 33.8227854,88.2812384 34.2324597,88.3597586 C34.6421339,88.4382787 35.0518082,88.5167989 35.4644948,88.562099 L36.69653,88.7281994 C37.103192,88.7885995 37.5219033,88.8067196 37.9345899,88.8459797 C38.3472765,88.8852397 38.7629754,88.9275198 39.1636127,88.9395999 L40.3685371,88.9849 C40.5763866,88.9849 40.7541129,89 40.9709993,89 L41.5734615,89 L42.7783859,88.98188 C43.1790233,88.98188 43.5796606,88.9335598 43.9833103,88.9124198 C44.38696,88.8912798 44.7785604,88.8761797 45.1731732,88.8218196 C48.2487548,88.5219952 51.2798769,87.8694344 54.2070938,86.8769352 C56.9298595,85.9334442 59.5379059,84.6853536 61.9818685,83.1562868 C66.2553608,80.488173 69.9445345,76.9786137 72.826188,72.8399435 C74.0153062,71.1224186 75.0515137,69.3034121 75.9228437,67.4039312 C77.5489615,63.8793404 78.5898661,60.1121053 79.0044378,56.251046 C84.4567207,63.7527429 87.0864682,74.8965681 88.3847743,66.0841882 C89.4782431,58.6730915 84.0952434,54.8135227 80.7124182,53.149499 C92.4333202,56.3325862 105.762796,67.5126514 99.3164508,57.0090677 Z M79.0616718,52.6028777 L79.0435979,53.2068791 C79.025524,53.6478001 79.0435979,54.3031416 78.9441916,55.1487435 C78.7614439,57.6019642 78.2892318,60.0248125 77.5374424,62.3665598 C77.3175437,63.1306215 77.0072757,63.9067633 76.7030323,64.7282051 C76.3505919,65.528507 76.0011638,66.3771289 75.5553418,67.2197108 C74.6277536,69.0552124 73.5411548,70.8054881 72.3080705,72.4503626 C70.9070898,74.3114693 69.3281746,76.0309666 67.5938038,77.5843742 C65.6721688,79.2948936 63.5876962,80.8121719 61.3703693,82.1143844 L60.4967991,82.6247656 L59.5931058,83.1019267 C59.2918748,83.255947 58.9906437,83.4280874 58.6894126,83.5700277 L57.7465592,84.0139687 L57.2736264,84.2374492 L56.7886443,84.4428097 L55.7825325,84.8656107 C55.1228363,85.1283513 54.4450664,85.3608918 53.7672964,85.6085323 C50.9365566,86.5506983 48.0144698,87.1904622 45.0496684,87.5171766 C44.6701172,87.5745568 44.2845414,87.5866368 43.8989656,87.6228769 C43.5133898,87.659117 43.127814,87.689317 42.7392259,87.7104571 L41.5674369,87.7466972 L40.9649747,87.7648172 L40.3805864,87.7648172 L39.175662,87.7648172 C38.7720123,87.7648172 38.3864365,87.7255571 37.9888115,87.7074371 C37.5911864,87.689317 37.1965737,87.674217 36.7838871,87.6289169 L35.5789627,87.5050966 C35.175313,87.4718765 34.7776879,87.4024164 34.3740383,87.3420163 C33.9703886,87.2816161 33.5667389,87.224236 33.1691139,87.1517558 C32.3708515,86.9826354 31.5575275,86.8497551 30.7592651,86.6323146 C29.1378183,86.2370177 27.5430942,85.7387171 25.9847522,85.1404313 C24.4002908,84.5220802 22.8550946,83.8070131 21.3578425,82.9992464 C19.8436609,82.1649494 18.3883146,81.227556 17.0020408,80.1936601 C14.1867122,78.0688341 11.700706,75.5378039 9.6248912,72.6829031 C8.57719039,71.2443383 7.63680408,69.7302235 6.81139274,68.1528929 C5.15679601,64.9545904 4.04317388,61.5031351 3.51592452,57.9392298 C3.26502084,56.156485 3.142204,54.3579706 3.14842258,52.5575776 C3.19648278,49.1863896 3.75615505,45.8421802 4.80820594,42.6398752 C9.5134357,41.3895924 16.8574499,39.2121675 22.050674,40.8278711 C22.050674,40.8278711 23.6321373,38.2608653 22.912195,36.1468606 C22.912195,36.1468606 15.5049223,34.6368571 8.62179165,34.6157171 C9.05255212,33.9513156 9.50138645,33.2989941 9.97431928,32.6678127 C14.1266009,27.1338322 19.7296675,22.8640788 26.1594662,20.3341048 C26.5811897,20.1710245 27.0029133,20.0321041 27.4276491,19.8660038 L27.397526,19.956604 L27.5360923,20.0170041 L27.9035943,19.4130027 L28.9428416,17.7187789 L29.6959193,16.5107762 L30.5996126,15.106473 C31.2502718,14.1098708 31.9852757,12.9924682 32.8347474,11.8056055 C33.6842191,10.6187429 34.6421339,9.36242002 35.6572828,8.06079708 C36.723739,6.68399002 37.8799848,5.3795119 39.1184281,4.15592826 C40.4407813,2.83680741 42.0227061,1.80829487 43.7634116,1.13592143 C44.6560835,0.808986326 45.5941306,0.623546738 46.5437747,0.58628019 C47.4885942,0.567005152 48.4298032,0.708955684 49.32715,1.00606114 C49.7717293,1.15489829 50.204682,1.33659736 50.6224437,1.54966237 C50.8543917,1.65838261 51.0381426,1.77314287 51.2249059,1.88488312 C51.4146648,2.00234832 51.5976994,2.13039656 51.7731465,2.26842399 C52.1097962,2.51044829 52.3937111,2.81872296 52.6075567,3.17442604 C52.7962381,3.48193871 52.883703,3.8411438 52.8575785,4.20122836 C52.8093815,4.92300999 52.3756087,5.69613174 51.8273681,6.36657325 C51.2601737,7.04778913 50.6319986,7.67554729 49.9506984,8.24199749 C48.6140455,9.34027623 47.2193317,10.365545 45.772623,11.3133444 C44.38696,12.2344465 43.0615432,13.0770284 41.7933602,13.8259901 C40.5251773,14.5749518 39.3835114,15.2574733 38.3472765,15.8554347 L35.6602951,17.3895982 L33.3076802,18.7214212 L33.3679264,18.8603415 L34.0396718,18.633841 C34.4764568,18.4798206 35.1150668,18.2533201 35.9193538,17.9392394 L36.2476957,17.8093791 L36.8501579,17.739919 C37.2447706,17.6855588 37.645408,17.6764988 38.0550823,17.6432787 C38.4647566,17.6100587 38.8443078,17.5768386 39.2419328,17.5707986 L40.4227587,17.5405985 L40.9920855,17.5405985 L41.5945477,17.5405985 L42.7844105,17.5647586 C43.176011,17.5647586 43.5525498,17.6130787 43.932101,17.6372387 C44.3116522,17.6613988 44.6912034,17.6734788 45.0707546,17.7278389 C48.0314041,18.0285631 50.9511176,18.6482206 53.7793456,19.5760831 C56.420583,20.4601049 58.9642708,21.6137607 61.3703693,23.0188909 C63.5903215,24.3185117 65.6760401,25.8359624 67.5968161,27.5489011 C69.3333495,29.1010279 70.9133833,30.8206447 72.3140951,32.6829127 C73.5470933,34.3267811 74.6336922,36.0760465 75.5613664,37.9105445 C76.0102007,38.7531264 76.3566165,39.6017484 76.7090569,40.4020502 C77.010288,41.223492 77.3115191,41.9996338 77.543467,42.7606755 C78.2970252,45.1013508 78.7722445,47.5230516 78.9592532,49.9754718 C79.0496225,50.8210737 79.0405856,51.4854752 79.0616718,51.9143162 L79.0827579,52.5575776 C79.0556471,52.5515376 79.0556471,52.5787177 79.0556471,52.6058978 L79.0616718,52.6028777 Z M41.4981538,47.5715464 C41.3575259,47.2410734 41.193436,46.9211385 41.0071471,46.6142042 C40.9048858,46.4363886 40.789069,46.2667631 40.6607313,46.1068431 L40.4679434,45.8410825 L40.2450324,45.5874019 C39.5563462,44.8078806 38.7289257,44.1637113 37.8050605,43.6878176 L37.4194847,43.4884971 C37.2839307,43.431117 37.151389,43.3707169 37.0128227,43.3163568 C36.8742564,43.2619966 36.7356901,43.2015965 36.5910992,43.1532764 L36.1513018,43.0203961 C35.5300193,42.8406671 34.8938643,42.7173562 34.2505335,42.6519553 C34.0758195,42.6277952 33.9493024,42.6308152 33.7776007,42.6187352 L33.2775571,42.5945751 C32.9371659,42.6126952 32.5907502,42.5945751 32.2413221,42.6489352 C31.888698,42.6831809 31.5385764,42.7396662 31.1930379,42.8180556 C30.8391567,42.8947821 30.4909242,42.9956844 30.1507783,43.1200563 C29.4481521,43.3610461 28.7790438,43.6908733 28.1596407,44.1015585 C27.516191,44.5149394 26.9392525,45.0241053 26.4486481,45.6115619 C25.942567,46.2121891 25.5532803,46.9026079 25.3009576,47.6470465 C25.1814598,48.0307181 25.0997371,48.4252026 25.0569604,48.8248492 L25.023825,49.1268499 L25.023825,49.8274915 L25.0418988,49.9724518 C25.1107923,50.7348624 25.3299018,51.4759893 25.6865334,52.1528967 L25.8100381,52.4035573 C25.8552228,52.4850975 25.9094444,52.5605976 25.9576414,52.6421378 C26.0489221,52.8019501 26.1495064,52.9562373 26.2588725,53.1041989 L26.5962513,53.5420999 L26.9697779,53.9407408 C27.4816202,54.4485598 28.0461182,54.900097 28.6536597,55.2876638 C29.2538773,55.6644841 29.8907386,55.9791749 30.5544279,56.2268859 C30.8808928,56.3512324 31.2137208,56.4580901 31.5515029,56.5470067 C31.7201923,56.5923068 31.8979186,56.6194868 32.0696204,56.6587469 C32.2386347,56.6970915 32.4095775,56.7263268 32.5817132,56.7463271 L33.0606707,56.7976672 L33.1811631,56.7976672 L33.2414093,56.7976672 L34.0938933,56.7976672 C34.2595705,56.7976672 34.4252476,56.7704872 34.5879123,56.7584071 C36.8717994,56.5310074 38.9588918,55.3628373 40.3504633,53.5330398 C40.4871583,53.3592006 40.61388,53.1777071 40.7300145,52.9894386 C40.8427904,52.8217009 40.9434575,52.6460927 41.0312456,52.4639574 C41.1264764,52.3025056 41.209061,52.1338853 41.2782551,51.9596163 L41.4770676,51.4915152 C41.6498398,51.0237841 41.7720362,50.538812 41.8415572,50.044932 C41.8502933,49.8723305 41.8724509,49.7006758 41.907828,49.5315308 C41.8735108,49.3592448 41.8523631,49.1845835 41.8445695,49.0090696 C41.789556,48.5172496 41.6731741,48.0342991 41.4981538,47.5715464 Z M41.6698555,50.047952 C41.6050825,50.5186909 41.4668339,50.9762807 41.2601812,51.403935 C40.9130232,52.050499 40.4469513,52.625355 39.8865674,53.0981589 C39.1699502,53.6930307 38.3689163,54.1775253 37.509854,54.5356821 C36.5203015,54.9627728 35.4823987,55.2670285 34.4192229,55.4416842 C34.2776443,55.4658442 34.1360657,55.4960443 33.9914748,55.5141643 L33.5546897,55.5534244 L33.334791,55.5775845 L33.2926186,55.5775845 L33.11188,55.5775845 L32.6299102,55.5775845 C32.3136176,55.5775845 32.027448,55.5775845 31.7262169,55.5473844 C31.4108282,55.5181971 31.0971371,55.4728376 30.7863759,55.4114841 C29.466199,55.1736773 28.2512692,54.5335505 27.3071567,53.5783399 C26.3372654,52.6104194 25.8152047,51.2800339 25.867272,49.9090317 L25.867272,49.8214515 L25.867272,49.7882314 L25.867272,49.7217912 L25.9034198,49.4560306 L25.9395675,49.19027 L26.002826,48.9637695 C26.0839238,48.6525909 26.1928067,48.3493658 26.3281556,48.0577675 L26.5510666,47.6319465 C26.6293867,47.4930262 26.728793,47.3661859 26.81615,47.2333056 C26.9077262,47.0996814 27.0083748,46.9725402 27.1173811,46.8527847 C27.2081086,46.7261005 27.3088432,46.6069301 27.4186122,46.4964239 C27.8547864,46.0383009 28.3562585,45.6474967 28.9066938,45.3367413 C29.4428478,45.0250631 30.0142126,44.7786978 30.6086495,44.6028797 L31.0484469,44.4820794 C31.1930379,44.4397993 31.349678,44.4246993 31.4912567,44.3914792 C31.7829682,44.3326141 32.0775825,44.2892667 32.3738638,44.2616189 C32.6750949,44.2223588 32.9612644,44.2314188 33.247434,44.2072588 L33.6872314,44.2072588 C33.8378469,44.2072588 34.0095486,44.2072588 34.139078,44.2253788 C34.6848032,44.2620449 35.227324,44.3367186 35.7627136,44.4488593 C36.027797,44.5032194 36.2868557,44.5545596 36.5368776,44.6300597 C36.6633946,44.6662998 36.7899117,44.6934799 36.9134164,44.7266999 L37.2748937,44.8475002 C38.1601195,45.1237742 38.9966577,45.5375072 39.7540257,46.073623 L40.0040475,46.2578434 L40.2239462,46.4571639 C40.3670675,46.5801937 40.4991142,46.7156094 40.6185589,46.8618448 C40.7366592,46.9915673 40.846332,47.1287563 40.9469008,47.2725657 L41.2029473,47.6802666 C41.4225383,48.1013902 41.5692137,48.5568371 41.6367201,49.0271897 L41.6819047,49.5315308 L41.6698555,50.047952 Z M29.1627403,51.6274155 C30.3139884,51.6274155 31.2472595,50.6917602 31.2472595,49.5375708 C31.2472595,48.3833814 30.3139884,47.4477261 29.1627403,47.4477261 C28.0114921,47.4477261 27.0782211,48.3833814 27.0782211,49.5375708 C27.0782211,50.6917602 28.0114921,51.6274155 29.1627403,51.6274155 Z M34.0456964,61.5964581 C33.7444653,61.1857371 33.4040741,60.8233363 33.0697076,60.4609355 C32.4220608,59.7663339 31.75634,59.0747524 31.0785701,58.4043109 C30.4008001,57.7338693 29.6989316,57.0785279 28.9699524,56.4443264 C28.2409731,55.810125 27.5210308,55.1880036 26.77699,54.5840022 C26.0329491,53.9800009 25.2708345,53.3759995 24.4906459,52.8384383 C24.103735,52.5611189 23.7014476,52.306022 23.2857215,52.0743766 C23.0728434,51.9568746 22.8512911,51.8559117 22.6230131,51.7723759 C22.4196172,51.6966169 22.2043949,51.6577574 21.9874155,51.6576156 C22.3488928,51.406955 22.5326438,51.0807943 22.8911088,50.2140523 C22.9343796,50.0150323 22.9635713,49.8131961 22.9784658,49.610051 L22.9784658,49.3080503 L22.9784658,49.0755098 L22.9784658,49.0211496 L22.9784658,48.9969896 L22.9784658,48.9637695 L22.9001457,48.4292283 C22.8459241,48.2178278 22.7886902,48.0094474 22.7224194,47.8040869 C22.4343179,47.0716997 21.9890144,46.4118327 21.4180887,45.8712825 C20.8794207,45.3563096 20.2770589,44.9127725 19.6257637,44.5515395 C18.9866348,44.1917046 18.3173644,43.8885508 17.6255892,43.6455375 C16.9273262,43.4086469 16.2110647,43.2288716 15.4838361,43.1079763 C15.3000851,43.0687162 15.1163341,43.0626762 14.9295709,43.0385161 L14.6524382,43.0083161 L14.5831551,43.0083161 L14.4837488,43.0083161 L14.3481948,43.0083161 L13.8120035,42.987176 L13.2306275,43.0173761 C12.4621972,43.0719226 11.7059982,43.2398308 10.9864558,43.5156772 C10.2555494,43.7993542 9.56961526,44.1879582 8.95013354,44.6693198 C8.311712,45.1684025 7.77223441,45.7830115 7.35963334,46.4813239 C6.93295794,47.1970332 6.67343729,48.0002987 6.60053097,48.8308892 L6.58546942,49.1328899 L6.58546942,49.2899303 L6.58546942,49.4107305 L6.58546942,49.4771707 C6.60053097,49.6583711 6.60956791,49.8244715 6.63366639,50.0207719 C6.65776488,50.2170724 6.72102341,50.4586729 6.76620808,50.6730934 C6.81139274,50.8875139 6.89874976,51.0626743 6.9650206,51.2589747 C7.26906662,52.0092758 7.73508389,52.6827564 8.32959748,53.2310392 C8.89962677,53.7535125 9.55742672,54.1706722 10.2725381,54.4632019 C10.9609427,54.7402678 11.6769209,54.9427522 12.4082666,55.0672033 C13.122437,55.1699039 13.8437416,55.2143431 14.5650812,55.2000836 L14.6373767,55.2000836 C14.3030102,55.3994041 13.9776806,55.6138245 13.6493387,55.825225 C13.3209968,56.0366255 12.9173471,56.3295662 12.567919,56.6043868 C11.132637,57.6827081 9.88655889,58.993208 8.88085039,60.4820756 C8.75132102,60.666296 8.64287782,60.8686364 8.52539769,61.0619169 C8.40430251,61.2571947 8.29369367,61.4588155 8.19404349,61.6659182 C7.98016941,62.0675791 7.80846768,62.4903801 7.63375364,62.910161 C7.47414232,63.336847 7.33936583,63.7724604 7.23010397,64.214804 C7.12019553,64.6548298 7.03372035,65.1004075 6.97104523,65.549647 L6.89272514,66.008688 L7.32951023,66.0328481 C8.28441282,66.0872082 9.23329078,66.1294883 10.1821687,66.1959285 C10.7846309,66.2321685 11.3870931,66.2744486 11.9895553,66.3227688 C12.1915955,66.9163476 12.4289909,67.4972334 12.7004607,68.0622927 C12.848064,68.3642934 13.0016918,68.6874341 13.1643566,68.9924548 C13.3270214,69.2974755 13.4957108,69.5964561 13.6734372,69.8984568 C14.0248735,70.5024582 14.4014123,71.0853195 14.8030538,71.6470408 C15.0048786,71.9309214 15.2097158,72.2117821 15.4266022,72.4835827 C15.6434886,72.7553833 15.8724242,73.0181239 16.1103968,73.2748245 C16.596283,73.7805772 17.1101937,74.2584949 17.6496877,74.7063077 C17.923808,74.9267682 18.1888913,75.1532687 18.466024,75.3676892 C18.7431566,75.5821097 19.0172769,75.7965302 19.2944095,76.0079306 C19.5715421,76.2193311 19.851687,76.4246916 20.1378565,76.627032 C20.4240261,76.8293725 20.7222449,77.0166129 21.0415498,77.1917733 C21.3536842,77.3712323 21.678942,77.5267049 22.0145263,77.6568544 C22.1832157,77.7293345 22.3669667,77.7625546 22.544693,77.8229547 C22.7224194,77.8833549 22.9182196,77.8893949 23.1079952,77.919595 L23.2074014,77.937715 L23.3640416,77.8289948 C23.9424053,77.4212938 24.520769,77.0256729 25.0810589,76.596832 C25.6413487,76.167991 26.1805524,75.72103 26.7167437,75.268029 C27.2529351,74.8150279 27.7800895,74.3620269 28.3012193,73.8727858 C28.8223491,73.3835447 29.3254051,72.9033636 29.8073748,72.3929825 C30.0453474,72.1332619 30.2893446,71.8765613 30.5212925,71.6077807 C30.7532405,71.3390001 30.9851884,71.0702195 31.2050871,70.7923789 C31.6549511,70.2364566 32.0762186,69.6578759 32.4672454,69.0588949 C32.6660579,68.7568943 32.8528212,68.4548936 33.0275353,68.1317528 C33.2072876,67.8132211 33.3662688,67.4833497 33.5034804,67.1442106 C33.6436592,66.7992936 33.7447045,66.4396664 33.8047115,66.0721082 C33.8214274,65.9721482 33.8324902,65.8713202 33.8378469,65.7701075 C34.1384474,65.6284187 34.409366,65.4306041 34.6361093,65.1872462 C34.9217048,64.8643942 35.0829984,64.4499564 35.0909683,64.0185035 C35.086322,63.6708025 35.0147231,63.327275 34.8801065,63.0068013 C34.6630029,62.5029851 34.382597,62.0290353 34.0456964,61.5964581 L34.0456964,61.5964581 Z M14.5650812,55.1668635 C13.8569642,55.1519287 13.155583,55.0255614 12.4865866,54.7923827 C11.8296688,54.55153 11.2123526,54.2135816 10.6551016,53.7897404 C10.1210565,53.3916497 9.64986695,52.9151839 9.25738926,52.3763772 C8.88256353,51.8753968 8.58971388,51.3177648 8.3898437,50.7244335 L8.27236357,50.2895525 C8.25428971,50.1536522 8.23621584,50.0207719 8.20910504,49.8878916 C8.18199424,49.7550113 8.19103117,49.5345508 8.18199424,49.3593904 L8.18199424,49.2808702 L8.18199424,49.16913 L8.20006811,48.9456495 C8.26340595,48.346962 8.44245832,47.766376 8.72722253,47.2363256 C9.02227382,46.684393 9.41410993,46.1902775 9.88394995,45.7776623 C10.3708105,45.3519952 10.9129332,44.9943975 11.4955363,44.7146199 C12.0939879,44.4328631 12.7212219,44.2171752 13.3661814,44.0713585 L13.8451389,43.9686782 L14.3783179,43.9052581 L14.5108596,43.8901581 C14.52686,43.8922117 14.5430562,43.8922117 14.5590566,43.8901581 L14.6223151,43.8901581 L14.8783616,43.8901581 C15.0500633,43.8901581 15.221765,43.865998 15.3934667,43.8901581 C16.0881118,43.8968287 16.7792276,43.9901598 17.4508751,44.1679987 C18.1233691,44.348808 18.7672461,44.6232819 19.3636926,44.9834005 C19.9493674,45.3398614 20.4607988,45.806453 20.8698481,46.3575036 C21.2688903,46.8764352 21.5421673,47.4812485 21.6681105,48.1242076 C21.6681105,48.269168 21.7012459,48.4111083 21.7253444,48.5470086 L21.7253444,49.0845698 L21.7072706,49.2778502 C21.7072706,49.3533504 21.6891967,49.4288506 21.6741352,49.5043507 C21.6487817,49.6539751 21.6156005,49.8021599 21.5747289,49.9482917 C21.4095731,50.5054434 21.1585266,51.0332745 20.8306881,51.5126553 C20.3888825,51.7260691 19.9591261,51.9596163 19.541419,52.2132969 C19.0594492,52.5152975 18.592541,52.8172982 18.1346697,53.140439 C17.8334386,53.3488194 17.5322075,53.5632399 17.2490503,53.7776604 L17.071324,53.8652406 C16.6797235,54.061541 16.2881231,54.2608615 15.9025473,54.469242 C15.5169715,54.6776224 15.1313957,54.8950629 14.7518445,55.1215634 L14.6223151,55.2000836 L14.543995,55.2000836 L14.5650812,55.1668635 Z M10.7786063,50.9841541 C11.8350262,50.9841541 12.6914238,50.1255686 12.6914238,49.0664498 C12.6914238,48.0073309 11.8350262,47.1487454 10.7786063,47.1487454 C9.72218639,47.1487454 8.86578884,48.0073309 8.86578884,49.0664498 C8.86578884,50.1255686 9.72218639,50.9841541 10.7786063,50.9841541 Z M32.8226981,66.7667098 C32.4175692,67.3077189 31.9841958,67.8268779 31.5243921,68.3220133 C31.2984688,68.5756938 31.0574839,68.8203144 30.8225236,69.0649349 C30.5875634,69.3095555 30.3495908,69.5571961 30.1086059,69.8018166 L28.6506474,71.2574599 L25.7497919,74.2170666 C25.2617975,74.7093277 24.7647662,75.1925288 24.2858088,75.6968699 L22.9302688,77.1223132 C22.8359497,77.1273421 22.7414307,77.1273421 22.6471116,77.1223132 C22.4902667,77.1097607 22.3343376,77.0875723 22.1802034,77.055873 C21.8636242,76.9900677 21.5554343,76.8887637 21.2614485,76.7538723 C20.9616854,76.6118354 20.6736115,76.4462241 20.3999276,76.2585912 L19.9962779,75.9565905 C19.8667486,75.8508903 19.7402315,75.73613 19.6137144,75.6274098 C19.3644722,75.4001959 19.129087,75.1581584 18.9088337,74.9026081 C18.6859227,74.6519476 18.4750609,74.383167 18.2702237,74.1174064 C18.0653866,73.8516458 17.8665741,73.5738051 17.6677615,73.2929445 L17.0833732,72.4684826 C16.6947851,71.9188414 16.2881231,71.3843002 15.8784488,70.852779 L14.640389,69.2461354 C14.2246901,68.7085741 13.8089912,68.1710129 13.3782307,67.6394917 C13.032819,67.2046107 12.6763622,66.7747631 12.3088603,66.3499488 L13.0197657,66.4073289 C13.9656313,66.4949091 14.911497,66.5734293 15.8573626,66.6700695 L18.6979719,66.9569702 L20.1197827,67.0989105 L21.5476181,67.2197108 C22.5025207,67.2921909 23.4544109,67.3556111 24.4183505,67.3737311 L25.1382928,67.3737311 L25.8642597,67.3737311 L26.593239,67.3556111 L27.3312552,67.2921909 C27.8380513,67.2495596 28.3413024,67.1718609 28.8374107,67.0596504 C29.3043189,66.9418701 29.741104,66.8391899 30.1929506,66.7395297 C31.0966439,66.5311492 32.0334726,66.3831689 33.0305476,66.0902282 L33.2835817,66.002648 C33.148307,66.2680184 32.9942868,66.5233561 32.8226981,66.7667098 L32.8226981,66.7667098 Z M33.4251603,64.1000437 C33.1704013,64.3117797 32.8720884,64.4644112 32.5515901,64.5470047 C31.7352538,64.8188054 30.7893882,65.0120858 29.8585841,65.2506663 C29.3946882,65.3654266 28.9066938,65.5103869 28.4578595,65.6402472 C28.0350338,65.7504783 27.6053203,65.8322013 27.1716027,65.8848678 L26.4938327,65.972448 L25.8010012,66.0237881 L25.1051574,66.0751282 L24.4032889,66.1023083 C23.9363807,66.1264683 23.4664602,66.1506284 22.9935274,66.1566684 C22.5205945,66.1627084 22.050674,66.1929085 21.5777412,66.1959285 L20.1589427,66.2140485 L18.7311073,66.2140485 C18.2581745,66.2140485 17.7822294,66.2140485 17.3092965,66.1868684 C16.8363637,66.1596884 16.3604186,66.1627084 15.8874857,66.1325083 C14.9386078,66.0962682 13.9957544,66.0177481 13.0498888,65.9452679 C12.1040231,65.8727877 11.1611698,65.7610475 10.2213288,65.6432672 C9.44114023,65.543607 8.66095169,65.4228067 7.88377545,65.2929464 C7.95637388,65.025503 8.04386814,64.7623497 8.14584651,64.5047246 C8.29192885,64.1149421 8.45782315,63.7329144 8.64287782,63.3601421 C8.83566573,62.9917012 9.02845363,62.6232604 9.24534002,62.2729396 C9.3507709,62.0947592 9.4592141,61.9165788 9.57970654,61.7474584 C9.70019898,61.578338 9.80562986,61.3971376 9.93515924,61.2340573 C10.0646886,61.0709769 10.1881934,60.9018565 10.3116981,60.7327361 L10.7063108,60.246515 C10.9683819,59.9233743 11.2485268,59.6092936 11.5316841,59.2982329 C11.8148413,58.9871722 12.1100478,58.6942315 12.4052542,58.3922308 C12.7004607,58.0902301 13.0077164,57.7882295 13.3089475,57.5134088 C13.6101786,57.2385882 13.9385205,56.9426276 14.2578255,56.6557269 C14.5771305,56.3688263 14.911497,56.1030657 15.2458635,55.831265 C15.58023,55.5594644 15.9176089,55.2937038 16.2640246,55.0370032 C16.6104404,54.7803027 16.9628808,54.5296421 17.3183335,54.2820015 C18.0352635,53.7988004 18.7702674,53.3397594 19.5353944,52.9290385 C20.2937685,52.5164656 21.0763971,52.150373 21.8789723,51.832776 C22.102575,51.8232161 22.3255871,51.8623687 22.5326438,51.9475363 C22.7504421,52.028375 22.9602114,52.1294833 23.1592045,52.2495369 C23.5612415,52.4934698 23.9439335,52.7680965 24.3038826,53.0709788 C24.6683723,53.3729795 25.014788,53.6900802 25.3521669,54.025301 C25.6895457,54.3605217 26.0208999,54.6927225 26.3402049,55.0430433 C26.9848394,55.7376448 27.5963386,56.4594265 28.21085,57.1812081 L30.0393228,59.355613 C30.641785,60.0773946 31.271358,60.7931363 31.8979186,61.5088779 C32.1991497,61.8561787 32.5003808,62.2095195 32.7473903,62.5628603 C32.9932538,62.8852571 33.2014572,63.2348382 33.3679264,63.6047626 C33.417839,63.7239386 33.4483501,63.8503733 33.4582957,63.9792435 C33.4647043,64.0224533 33.4550563,64.0665177 33.4311849,64.1030637 L33.4251603,64.1000437 Z M25.7437673,35.89318 C24.840074,37.9467846 26.3100818,40.6285507 26.3100818,40.6285507 C34.5969493,38.8165466 47.2305816,45.7625623 48.8210818,44.6783798 C50.411582,43.5941974 47.031769,36.3733611 47.031769,36.3733611 C39.214822,34.2925764 25.7437673,35.89318 25.7437673,35.89318 Z M52.0231683,10.0207815 C52.9268616,9.83052108 53.9299612,9.62214061 55.0354793,9.44396021 C56.1409975,9.2657798 57.3368849,9.10269944 58.5990432,9.00605922 C59.9023145,8.90199424 61.2117763,8.90199424 62.5150475,9.00605922 C63.8720434,9.10577549 65.1929325,9.49060424 66.3918917,10.1355418 C66.539495,10.220102 66.675049,10.3227822 66.8166276,10.4133824 L67.0305017,10.5553227 C67.0997848,10.6036428 67.160031,10.667063 67.2263019,10.7184031 L67.6239269,11.0475838 L67.9763673,11.4250847 L68.157106,11.6123251 C68.2113276,11.6787653 68.2565122,11.7482254 68.3077215,11.8146656 L68.6089526,12.2223665 C68.7083589,12.3733668 68.7957159,12.5515472 68.8890976,12.7146276 L69.0276639,12.9652882 L69.0607993,13.0287083 L69.0788731,13.0589084 L69.0788731,13.0740084 L69.1571932,13.1887687 C69.3061176,13.5128009 69.4231482,13.8506291 69.5066213,14.197451 C69.5781937,14.5377839 69.5985012,14.8869471 69.5668675,15.2333133 C69.5273332,15.5752179 69.4153869,15.9047073 69.2385256,16.1997155 C69.0514598,16.4947821 68.815044,16.7552995 68.5396695,16.9698172 C68.2636793,17.1910065 67.959836,17.3747937 67.6359762,17.5164385 C67.3100393,17.6641139 66.9712298,17.7813827 66.6238397,17.8667592 C65.9379639,18.0381147 65.2365238,18.1392992 64.5302836,18.1687599 C63.1355836,18.2472801 61.7800436,18.1687599 60.4998115,18.1234598 C59.2195793,18.0781597 57.9995933,18.0419196 56.8850383,17.9603795 C55.7704832,17.8788393 54.7252113,17.8244791 53.8064564,17.767099 L52.8877016,17.7036789 C50.3859478,16.9399482 47.8182533,16.4131663 45.2183578,16.1302553 C43.6797073,15.9648314 42.1328455,15.8881983 40.5854235,15.9007348 C41.1878857,15.6148408 41.8124382,15.3078068 42.459081,14.9796327 C43.7754609,14.2971112 45.191247,13.5300294 46.6431809,12.6210074 C47.6584982,11.9905188 48.6408045,11.3081028 49.5862088,10.5764628 L49.7067012,10.5462627 C50.3392865,10.4013024 51.1224874,10.217082 52.0171437,10.0207815 L52.0231683,10.0207815 Z" id="bird_pierre" fill="#000000"></path>
            </g>
        </g>
    </g>
</svg>