<?xml version="1.0" encoding="UTF-8" standalone="no"?>
<svg width="252px" height="48px" viewBox="0 0 252 48" version="1.1" xmlns="http://www.w3.org/2000/svg" xmlns:xlink="http://www.w3.org/1999/xlink">
    <!-- Generator: Sketch 39.1 (31720) - http://www.bohemiancoding.com/sketch -->
    <title>logo</title>
    <desc>Created with Sketch.</desc>
    <defs></defs>
    <g id="Assets" stroke="none" stroke-width="1" fill="none" fill-rule="evenodd">
        <path d="M219.953529,41.7955911 C219.4727,42.1068231 218.793125,42.3724271 217.914801,42.5924051 C215.77183,40.9316373 213.103265,38.3797641 209.909025,34.9367089 C206.350885,31.0885884 203.702536,28.4151974 201.963899,26.9164557 C201.842599,27.9696255 201.620218,30.7240284 201.296751,35.1797468 C201.094584,38.541789 200.730689,41.2151799 200.205054,43.2 C200.124187,43.2 199.871482,43.3012648 199.446931,43.5037975 C199.022381,43.7063301 198.668593,43.767089 198.38556,43.6860759 C196.606489,43.2810106 195.716968,42.0455799 195.716968,39.9797468 C195.716968,39.3721489 195.797833,38.5620304 195.959567,37.5493671 C196.1213,36.3746777 196.222382,35.645571 196.262816,35.3620253 C196.42455,33.0126465 196.525632,30.2177377 196.566065,26.9772152 L196.566065,20.3544304 C196.566065,14.8455421 196.869311,10.2076138 197.475812,6.44050633 C197.880146,3.92910137 200.245466,2.77468253 204.571841,2.97721519 C206.755246,3.05822825 208.655588,4.1518882 210.272924,6.25822785 C211.768961,8.20254137 212.516968,10.3088494 212.516968,12.5772152 C212.516968,14.4810222 211.809393,16.3848006 210.394224,18.2886076 C209.181221,19.9898819 207.685207,21.3265774 205.906137,22.2987342 C205.178336,22.7037995 204.81444,23.1493647 204.81444,23.635443 C204.81444,24.1620279 205.238985,24.7898698 206.088087,25.5189873 C206.735021,26.0455723 207.381946,26.5721493 208.028881,27.0987342 C208.069314,27.1392407 210.293119,29.1645369 214.700361,33.1746835 C216.372451,34.6798578 217.754053,36.0904445 218.845182,37.4064581 C218.831427,36.7792693 218.824549,36.1382987 218.824549,35.4835443 C218.824549,33.4987243 218.905414,30.5417918 219.067148,26.6126582 C219.228882,22.6835247 219.309747,19.7265922 219.309747,17.7417722 C219.309747,15.1088476 219.208665,12.6987451 219.006498,10.5113924 C218.966065,10.4708859 218.521304,10.0050677 217.672202,9.11392405 C217.146568,8.58733914 216.883755,8.10126805 216.883755,7.6556962 C216.883755,7.45316354 216.924187,7.25063392 217.005054,7.04810127 C217.207221,6.56202289 217.651982,6.27848142 218.33935,6.19746835 C218.864985,6.11645529 219.390611,6.05569641 219.916245,6.01518987 C223.312652,6.74430744 226.87074,8.64808587 230.590614,11.7265823 C231.561016,12.5367129 232.349455,13.3873373 232.955957,14.278481 C234.896761,17.1544448 235.867148,19.8480887 235.867148,22.3594937 C235.867148,23.6557027 235.604335,24.8911334 235.0787,26.0658228 C234.674366,26.997473 234.290255,27.9291093 233.926354,28.8607595 C233.441153,29.9544358 232.915526,30.8253132 232.349458,31.4734177 C231.096023,33.0531725 229.842606,34.6126505 228.58917,36.1518987 C227.093133,38.0151992 225.738634,39.3113888 224.525632,40.0405063 C224.121298,40.5265847 223.676537,41.0329088 223.191336,41.5594937 C222.706135,42.0860786 222.220941,42.3493671 221.73574,42.3493671 C221.49314,42.3493671 221.21011,42.2886082 220.886643,42.1670886 C220.5995,42.0592153 220.288464,41.9353838 219.953529,41.7955911 Z M125.937143,42.4698587 C125.792625,42.5121702 125.641737,42.5530189 125.484477,42.5924051 C123.341506,40.9316373 120.67294,38.3797641 117.4787,34.9367089 C113.92056,31.0885884 111.272211,28.4151974 109.533574,26.9164557 C109.412274,27.9696255 109.189893,30.7240284 108.866426,35.1797468 C108.664259,38.541789 108.300364,41.2151799 107.774729,43.2 C107.693862,43.2 107.441157,43.3012648 107.016606,43.5037975 C106.592056,43.7063301 106.238269,43.767089 105.955235,43.6860759 C104.176164,43.2810106 103.286643,42.0455799 103.286643,39.9797468 C103.286643,39.3721489 103.367508,38.5620304 103.529242,37.5493671 C103.690976,36.3746777 103.792058,35.645571 103.832491,35.3620253 C103.994225,33.0126465 104.095307,30.2177377 104.13574,26.9772152 L104.13574,20.3544304 C104.13574,14.8455421 104.438986,10.2076138 105.045487,6.44050633 C105.449822,3.92910137 107.815141,2.77468253 112.141516,2.97721519 C114.324921,3.05822825 116.225263,4.1518882 117.842599,6.25822785 C119.338636,8.20254137 120.086643,10.3088494 120.086643,12.5772152 C120.086643,14.4810222 119.379068,16.3848006 117.963899,18.2886076 C116.750896,19.9898819 115.254883,21.3265774 113.475812,22.2987342 C112.748011,22.7037995 112.384116,23.1493647 112.384116,23.635443 C112.384116,24.1620279 112.80866,24.7898698 113.657762,25.5189873 C114.304696,26.0455723 114.951621,26.5721493 115.598556,27.0987342 C115.638989,27.1392407 117.862794,29.1645369 122.270036,33.1746835 C124.130806,34.8497032 125.631833,36.4075842 126.773134,37.8483465 C127.118154,36.4965295 127.557916,35.080416 128.092419,33.6 C129.345855,30.3594775 130.599272,27.1190035 131.852708,23.878481 C128.981935,16.18224 126.53575,10.5519166 124.514079,6.98734177 C124.392779,6.78480911 124.33213,6.58227949 124.33213,6.37974684 C124.33213,5.93417499 124.584835,5.51898927 125.090253,5.13417722 C125.59567,4.74936516 126.090972,4.55696203 126.576173,4.55696203 C126.65704,4.55696203 127.425263,4.77974461 128.880866,5.22531646 C129.891702,6.76456466 130.942955,8.74935494 132.034657,11.1797468 C132.964626,13.2455799 133.874364,15.3113821 134.763899,17.3772152 C135.572567,14.9468233 136.381223,12.5367208 137.189892,10.1468354 C138.11986,7.35188476 139.150897,5.04304709 140.283032,3.22025316 C140.6065,2.65316172 141.172559,2.36962025 141.981227,2.36962025 C143.113363,2.36962025 144.063534,2.75442653 144.831769,3.52405063 C143.699633,8.10128871 141.617344,14.0556595 138.584838,21.3873418 C135.026697,29.9342199 132.742243,35.8278319 131.731408,39.0683544 C131.529241,39.7164589 131.428159,40.5265774 131.428159,41.4987342 C131.468592,42.8354497 131.468592,43.6860741 131.428159,44.0506329 C131.306859,45.4683615 130.558852,46.1772152 129.184116,46.1772152 C128.496747,46.2582283 127.758849,46.0253192 126.970397,45.478481 C126.181946,44.9316428 125.807942,44.3544334 125.848375,43.7468354 C125.865489,43.3296419 125.895079,42.9039831 125.937143,42.4698587 Z M21.2274368,5.52911392 C21.14657,9.13419524 20.5602943,14.8455305 19.4685921,22.6632911 C18.4577567,30.0759864 17.9523466,35.7670688 17.9523466,39.7367089 C17.9523466,40.9924113 17.9927794,42.1873361 18.0736462,43.321519 C18.0736462,43.6050647 17.9523478,43.8784797 17.7097473,44.1417722 C17.4671468,44.4050646 17.1841171,44.5367089 16.8606498,44.5367089 C15.7285142,44.5367089 14.9805072,44.4354441 14.6166065,44.2329114 C13.0801367,43.3417677 12.3119134,41.6607718 12.3119134,39.1898734 C12.3119134,38.703795 12.342238,37.944309 12.4028881,36.9113924 C12.4635382,35.8784758 12.4938628,35.1189898 12.4938628,34.6329114 C12.4938628,33.8227808 12.5949448,32.5873501 12.7971119,30.9265823 C12.999279,29.2658145 13.100361,27.9898779 13.100361,27.0987342 C12.5342932,27.1392407 11.7559616,27.0582289 10.765343,26.8556962 C9.77472429,26.6531635 9.05704194,26.5518987 8.61227437,26.5518987 C8.08663997,26.5518987 7.58122986,26.6329106 7.09602888,26.7949367 C6.12562692,29.9949527 5.5595676,34.7138929 5.39783394,40.9518987 C4.02309782,41.5189902 2.68881513,41.4582313 1.39494585,40.7696203 C0.4649773,40.2835419 0,39.3113997 0,37.8531646 C0,37.5291123 0.0303246065,37.0936736 0.0909747292,36.5468354 C0.151624852,35.9999973 0.181949458,35.6658234 0.181949458,35.5443038 C0.303249704,33.3569511 0.768227004,29.0228172 1.57689531,22.5417722 C2.26426336,17.1138969 2.58772583,12.800016 2.54729242,9.6 C2.54729242,9.15442815 2.86064669,8.87088668 3.48736462,8.74936709 C4.11408256,8.62784749 4.46786963,8.50632972 4.54873646,8.38481013 C4.79133695,8.66835585 5.37761268,8.91139139 6.30758123,9.11392405 C7.07581612,9.27595018 7.54079342,9.64050349 7.70252708,10.2075949 C8.0259944,11.2202582 8.18772563,12.3544241 8.18772563,13.6101266 C8.18772563,14.5012703 8.056319,15.9088511 7.79350181,17.8329114 C7.53068461,19.7569716 7.39927798,21.2253114 7.39927798,22.2379747 C7.88447896,22.6025335 8.49097109,22.8253161 9.21877256,22.9063291 C9.70397355,22.9873422 10.3913313,23.0075951 11.2808664,22.9670886 C12.4534355,22.8860755 13.1610096,22.8455696 13.4036101,22.8455696 C14.4144455,18.5923838 15.3039673,13.0835781 16.0722022,6.31898734 C16.2339358,4.90125873 16.7393459,4.19240506 17.5884477,4.19240506 C19.7314187,3.98987241 20.9444029,4.43543757 21.2274368,5.52911392 Z M46.9429603,6.37974684 C46.6599264,9.21520405 45.8512702,13.0025079 44.5169675,17.7417722 C42.6974638,24.1012976 41.6462108,27.9493604 41.3631769,29.2860759 C40.4736418,33.3772356 38.7754638,37.1037807 36.2685921,40.4658228 C34.6916889,42.612669 32.8722125,43.665823 30.8101083,43.6253165 C28.9906046,43.5848099 27.6361055,42.4303911 26.7465704,40.1620253 C25.2101006,36.3544113 24.4418773,31.8785067 24.4418773,26.7341772 C24.4418773,23.7772004 24.7249069,19.9696435 25.2909747,15.3113924 C25.2505413,15.7164577 25.2303249,14.4607741 25.2303249,11.5443038 C25.2303249,9.03289884 26.2007123,7.77721519 28.1415162,7.77721519 C28.5458504,7.77721519 28.9805031,7.88860648 29.4454874,8.11139241 C29.9104716,8.33417833 30.3653407,8.56708739 30.8101083,8.81012658 C30.8505417,10.8759597 30.7898925,13.913904 30.6281588,17.9240506 C30.4259918,22.217743 30.3249097,25.3164462 30.3249097,27.2202532 C30.3249097,29.2455797 30.385559,31.0885993 30.5068592,32.7493671 C30.587726,33.6000043 30.9516213,35.2202412 31.598556,37.6101266 C33.2967594,35.7063196 34.6310421,33.1746993 35.601444,30.0151899 C35.9249114,28.9620201 36.5718363,26.0860994 37.5422383,21.3873418 C38.3104732,17.822767 39.1797785,15.0278582 40.1501805,13.0025316 C40.4332144,12.4354402 40.6758113,11.3620332 40.8779783,9.78227848 C41.0801454,8.20252375 41.3227423,7.1088638 41.6057762,6.50126582 C42.0505437,5.52910906 42.8187671,5.04303797 43.9104693,5.04303797 C45.3256388,5.04303797 46.3364591,5.48860314 46.9429603,6.37974684 Z M74.4173285,2.67341772 C73.8512607,8.10129296 73.3054178,13.5493397 72.7797834,19.0177215 C72.0924153,25.4987666 71.7487365,30.9063074 71.7487365,35.2405063 C71.7487365,36.6582349 71.7891693,38.0556893 71.8700361,39.4329114 C71.9104695,40.0810159 71.6779809,40.6480988 71.1725632,41.1341772 C70.6671455,41.6202556 70.090978,41.8632911 69.4440433,41.8632911 C68.1906075,41.8632911 67.1393544,41.0126667 66.2902527,39.3113924 C63.7025141,34.2480759 60.4881058,26.3089148 56.6469314,15.4936709 C56.5660646,15.2506317 56.4649826,15.1291139 56.3436823,15.1291139 C56.0606484,15.1291139 55.8787008,15.4126554 55.7978339,15.9797468 C55.1104659,21.7721809 54.766787,27.8683224 54.766787,34.2683544 C54.766787,37.3468508 54.8476526,40.4860599 55.0093863,43.6860759 C55.0498197,44.8607654 54.7061408,45.6708838 53.9783394,46.1164557 C53.6953054,46.4000014 53.3920594,46.5417722 53.0685921,46.5417722 C52.7855582,46.5417722 52.4216629,46.4202544 51.9768953,46.1772152 C51.3703941,45.8936695 50.9862824,45.7113928 50.8245487,45.6303797 C50.2989143,45.4683536 49.9754519,44.9822825 49.8541516,44.1721519 C49.8137182,43.5240474 49.7732854,42.8556996 49.732852,42.1670886 C49.6115517,39.8987228 49.5509025,37.5291263 49.5509025,35.0582278 C49.5509025,30.7645355 49.7934994,25.3975006 50.2787004,18.956962 C51.0469352,9.15438137 51.4714797,3.72658754 51.5523466,2.67341772 C51.59278,1.78227403 52.3407869,1.33670886 53.7963899,1.33670886 C54.4837579,1.2556958 55.4945782,1.76201985 56.8288809,2.8556962 C58.1227502,5.32659463 59.7198461,9.33668111 61.6202166,14.8860759 C63.4397203,20.1924316 65.0974654,24.222771 66.5935018,26.9772152 C67.200003,21.5898465 68.150174,13.4481557 69.4440433,2.55189873 C69.5653436,1.7417681 70.1516193,1.33670886 71.2028881,1.33670886 C71.5667888,1.33670886 71.9913333,1.39746775 72.4765343,1.51898734 C73.1234689,1.68101347 73.5075806,1.78227828 73.6288809,1.82278481 C74.033215,1.98481094 74.2960283,2.26835241 74.4173285,2.67341772 Z M99.4050542,24.3037975 C98.3133519,27.0177351 97.6057778,30.3594738 97.2823105,34.3291139 C97.0801434,37.7721691 96.8981958,41.2151727 96.7364621,44.6582278 C96.6555953,45.6708911 95.9884539,46.1772152 94.7350181,46.1772152 C94.3711173,46.1772152 94.0274384,46.1164563 93.7039711,45.9949367 C91.9653343,45.2658191 91.0960289,43.9088707 91.0960289,41.9240506 C91.0960289,41.3569592 91.1768945,40.4962083 91.3386282,39.3417722 C91.5003618,38.187336 91.5812274,37.3468381 91.5812274,36.8202532 C91.7429611,35.6455637 91.9451251,33.8835561 92.1877256,31.5341772 C89.39782,34.1671018 86.2440609,36.1316391 82.7263538,37.4278481 C82.2411528,37.5898742 81.7559591,37.6708861 81.2707581,37.6708861 C79.410821,37.6708861 77.6924267,36.6177321 76.1155235,34.5113924 C75.2259883,33.336703 74.7812274,31.8784897 74.7812274,30.1367089 C74.7812274,28.5974607 75.1249063,26.794947 75.8122744,24.7291139 C77.9552454,18.1670558 81.3718177,11.7468668 86.0620939,5.46835443 C88.4072319,2.34935149 90.4895216,0.789873418 92.3090253,0.789873418 C93.9263619,0.789873418 94.8361001,1.39746228 95.0382671,2.61265823 C95.2000008,3.62532152 94.8563219,4.35442815 94.0072202,4.8 C92.5920507,5.5696241 91.8440437,5.9949363 91.7631769,6.07594937 C88.36677,9.84305681 85.2534438,14.7037677 82.4231047,20.6582278 C80.6844678,24.3443222 79.8151625,27.645555 79.8151625,30.5620253 C79.8151625,31.0886102 79.8353789,31.6151872 79.8758123,32.1417722 C79.9566791,32.1822787 80.0779775,32.3746818 80.2397112,32.7189873 C80.4014449,33.0632929 80.6238253,33.1746842 80.9068592,33.0531646 C83.5754646,31.9999947 87.5985291,29.2253389 92.9761733,24.7291139 C93.3805074,24.4050617 93.8454847,23.4734254 94.3711191,21.9341772 C94.7754533,20.7999943 95.5032438,20.2329114 96.5545126,20.2329114 C96.2310453,20.2329114 96.5545078,20.1924055 97.5249097,20.1113924 C98.0101107,20.0303793 98.3335732,20.1113912 98.4953069,20.3544304 C99.2635417,21.4886133 99.6476534,22.4202495 99.6476534,23.1493671 C99.6476534,23.5139259 99.5667878,23.8987322 99.4050542,24.3037975 Z M115.416606,12.6379747 C115.537907,11.9088571 115.57834,11.2607623 115.537906,10.6936709 C115.416606,9.84303372 115.062819,9.07342116 114.476534,8.38481013 C113.89025,7.69619909 112.950187,7.35189873 111.656318,7.35189873 C110.685916,7.35189873 110.079424,7.65569316 109.836823,8.26329114 C109.634656,9.27595443 109.533574,10.4303733 109.533574,11.7265823 C109.533574,12.2531672 109.594223,13.6101156 109.715523,15.7974684 C109.79639,17.4582362 109.79639,18.8151846 109.715523,19.8683544 C113.071497,17.3569495 114.971839,14.946847 115.416606,12.6379747 Z M183.101805,13.0632911 C182.576171,15.2506438 181.241888,17.2354341 179.098917,19.0177215 C177.036813,20.4759567 174.97474,21.913917 172.912635,23.3316456 C173.033936,23.9392435 173.448372,24.3949352 174.155957,24.6987342 C174.863541,25.0025332 175.540791,25.2962011 176.187726,25.5797468 C179.543699,27.7670995 181.221661,30.3594787 181.221661,33.356962 C181.221661,35.6658343 180.433221,37.7923953 178.856318,39.7367089 C177.643315,41.2354505 175.844055,42.7139168 173.458484,44.1721519 C171.51768,45.3063348 169.576905,46.4405007 167.636101,47.5746835 C167.1509,47.8582293 166.625274,48 166.059206,48 C164.724903,48 163.794948,47.45317 163.269314,46.3594937 C163.350181,42.956945 163.431047,39.5747004 163.511913,36.2126582 C163.59278,32.1620051 163.815161,28.8202663 164.179061,26.1873418 C163.32996,25.6202503 162.905415,24.9721555 162.905415,24.243038 C162.905415,23.8784792 163.057038,23.5443053 163.360289,23.2405063 C163.663539,22.9367073 164.077976,22.6025335 164.60361,22.2379747 C165.088811,16.0809819 165.189893,10.4101525 164.906859,5.22531646 C163.006489,4.86075767 161.753072,4.01013327 161.14657,2.67341772 C161.106137,2.51139159 161.176894,2.26835605 161.358845,1.9443038 C161.540795,1.62025154 161.631769,1.35696304 161.631769,1.15443038 C162.561738,0.465819342 163.592774,0.121518987 164.72491,0.121518987 C165.533578,0.121518987 167.393487,0.384807494 170.304693,0.911392405 C171.80073,1.15443159 173.357393,1.70126157 174.974729,2.55189873 C179.341538,4.82026451 181.909021,7.02783737 182.677256,9.17468354 C183.202891,10.7139317 183.344406,12.0101213 183.101805,13.0632911 Z M177.400722,10.0253165 C177.198555,8.52657478 175.985571,7.37215595 173.761733,6.56202532 C173.438266,6.44050572 172.932855,6.17721722 172.245487,5.7721519 C171.760286,5.44809965 171.355958,5.28607595 171.032491,5.28607595 C170.870757,5.28607595 170.68881,5.32658187 170.486643,5.40759494 C170.446209,6.09620597 170.425993,6.82531261 170.425993,7.59493671 C170.425993,8.64810653 170.506858,10.4303672 170.668592,12.9417722 C170.789892,15.2506445 170.830325,17.0531581 170.789892,18.3493671 C171.072926,18.3493671 171.49747,18.136711 172.063538,17.7113924 C172.629606,17.2860738 172.953068,17.0531648 173.033935,17.0126582 C174.246937,16.4455668 175.318407,15.4936776 176.248375,14.156962 C177.178344,12.8202465 177.562456,11.4430451 177.400722,10.0253165 Z M175.581227,33.843038 C175.662094,33.3974661 175.702527,32.9721539 175.702527,32.5670886 C175.702527,31.3518927 175.318415,30.2784857 174.550181,29.3468354 C172.488076,28.3341722 171.17401,27.8278481 170.607942,27.8278481 C170.284475,27.8278481 169.981229,27.888607 169.698195,28.0101266 C169.738628,28.4151919 169.758845,28.8607571 169.758845,29.3468354 C169.758845,30.1974726 169.647655,31.5037887 169.425271,33.2658228 C169.202887,35.0278569 169.091697,36.3544259 169.091697,37.2455696 C169.091697,38.5417786 169.253428,39.7164504 169.576895,40.7696203 C170.062096,40.2025288 170.820211,39.6050664 171.851264,38.9772152 C172.882316,38.3493639 173.599998,37.7924075 174.004332,37.3063291 C174.732134,36.4556919 175.25776,35.3012731 175.581227,33.843038 Z M192.502527,8.74936709 C192.583394,9.92405651 192.623827,11.1392342 192.623827,12.3949367 C192.623827,15.1493809 192.340797,19.3012381 191.774729,24.8506329 C191.208661,30.4000277 190.925632,34.5923909 190.925632,37.4278481 C190.925632,38.4810179 190.945848,39.513919 190.986282,40.5265823 C190.622381,41.6607652 189.833941,42.2075951 188.620939,42.1670886 C186.882302,42.0860755 185.932131,41.3367159 185.770397,39.9189873 C185.608663,38.5012587 185.527798,37.0025395 185.527798,35.4227848 C185.527798,32.6683407 185.861369,28.5569894 186.52852,23.0886076 C187.195671,17.6202258 187.529242,13.5291275 187.529242,10.8151899 C187.529242,9.76202005 187.488809,8.72911899 187.407942,7.7164557 C187.812276,6.94683159 188.499634,6.56202532 189.470036,6.56202532 C190.238271,6.56202532 191.006494,6.7848079 191.774729,7.23037975 C191.936463,7.10886015 192.057761,7.04810127 192.138628,7.04810127 C192.259928,7.04810127 192.320578,7.25063089 192.320578,7.6556962 C192.280144,8.14177458 192.280144,8.42531605 192.320578,8.50632911 C192.361011,8.62784871 192.42166,8.70886056 192.502527,8.74936709 Z M207.846931,12.6379747 C207.968232,11.9088571 208.008664,11.2607623 207.968231,10.6936709 C207.846931,9.84303372 207.493144,9.07342116 206.906859,8.38481013 C206.320575,7.69619909 205.380512,7.35189873 204.086643,7.35189873 C203.116241,7.35189873 202.509749,7.65569316 202.267148,8.26329114 C202.064981,9.27595443 201.963899,10.4303733 201.963899,11.7265823 C201.963899,12.2531672 202.024548,13.6101156 202.145848,15.7974684 C202.226715,17.4582362 202.226715,18.8151846 202.145848,19.8683544 C205.501822,17.3569495 207.402164,14.946847 207.846931,12.6379747 Z M230.711913,19.564557 C230.348013,17.0126455 228.184857,14.7645667 224.222383,12.8202532 C223.939349,19.5848439 223.858483,26.7543925 223.979783,34.3291139 C228.548759,29.7518758 230.833213,25.397489 230.833213,21.2658228 C230.833213,20.6987313 230.79278,20.1316484 230.711913,19.564557 Z M251.636101,2.73417722 C251.636101,3.54430785 251.049825,4.25316152 249.877256,4.86075949 C249.553789,5.02278562 249.21011,5.04303858 248.846209,4.92151899 C248.280142,4.75949286 247.976896,4.67848101 247.936462,4.67848101 C247.693862,4.67848101 247.451265,4.79999878 247.208664,5.04303797 C245.02526,7.23039068 243.933574,9.90378167 243.933574,13.0632911 C243.933574,14.2379806 244.115522,15.3316405 244.479422,16.3443038 C244.641156,16.7898756 246.177603,19.9290848 249.088809,25.7620253 C251.029613,29.6506524 252,32.9518852 252,35.6658228 C252,37.893682 251.454157,40.040496 250.362455,42.1063291 C249.998554,42.7949402 249.088816,43.6860705 247.633213,44.7797468 C246.460644,45.630384 245.409391,46.0556962 244.479422,46.0556962 C244.115522,46.0556962 243.771843,45.9949373 243.448375,45.8734177 C242.235373,45.3468328 241.628881,44.6784851 241.628881,43.8683544 C241.628881,43.3822761 241.932127,42.7949402 242.538628,42.1063291 C242.700362,41.9037965 243.084474,41.7822787 243.690975,41.7417722 C244.297476,41.7012656 244.701804,41.4582301 244.903971,41.0126582 C245.753073,39.2303708 246.177617,37.4076043 246.177617,35.5443038 C246.177617,32.9113792 244.873659,29.0936959 242.265704,24.0911392 C239.657749,19.0885826 238.353791,15.0886226 238.353791,12.0911392 C238.353791,9.62024081 238.838984,7.41266795 239.809386,5.46835443 C240.901088,3.24049519 242.457752,1.64051119 244.479422,0.66835443 C245.409391,0.222782582 246.319129,0 247.208664,0 C248.906868,0 250.180501,0.465818127 251.029603,1.39746835 C251.433937,1.8430402 251.636101,2.28860537 251.636101,2.73417722 Z" id="logo" fill="#FFFFFF"></path>
    </g>
</svg>